solid OpenSCAD_Model
  facet normal 0 -1 0
    outer loop
      vertex 0 3 0
      vertex 3.67382e-016 3 5.5
      vertex 0 3 5.5
    endloop
  endfacet
  facet normal 0 -1 -0
    outer loop
      vertex 3.67382e-016 3 5.5
      vertex 0 3 0
      vertex 3.67382e-016 3 0
    endloop
  endfacet
  facet normal -0.987688 -0.156435 0
    outer loop
      vertex 0.146831 2.07295 0
      vertex 3.67382e-016 3 5.5
      vertex 3.67382e-016 3 0
    endloop
  endfacet
  facet normal -0.987688 -0.156435 0
    outer loop
      vertex 3.67382e-016 3 5.5
      vertex 0.146831 2.07295 0
      vertex 0.146831 2.07295 5.5
    endloop
  endfacet
  facet normal -0.156435 -0.987688 0
    outer loop
      vertex 2.07295 0.146831 0
      vertex 3 0 5.5
      vertex 2.07295 0.146831 5.5
    endloop
  endfacet
  facet normal -0.156435 -0.987688 -0
    outer loop
      vertex 3 0 5.5
      vertex 2.07295 0.146831 0
      vertex 3 0 0
    endloop
  endfacet
  facet normal -0.707107 -0.707107 0
    outer loop
      vertex 1.23664 0.572949 0
      vertex 0.572949 1.23664 5.5
      vertex 0.572949 1.23664 0
    endloop
  endfacet
  facet normal -0.707107 -0.707107 0
    outer loop
      vertex 0.572949 1.23664 5.5
      vertex 1.23664 0.572949 0
      vertex 1.23664 0.572949 5.5
    endloop
  endfacet
  facet normal -0.891006 -0.453991 0
    outer loop
      vertex 0.572949 1.23664 0
      vertex 0.146831 2.07295 5.5
      vertex 0.146831 2.07295 0
    endloop
  endfacet
  facet normal -0.891006 -0.453991 0
    outer loop
      vertex 0.146831 2.07295 5.5
      vertex 0.572949 1.23664 0
      vertex 0.572949 1.23664 5.5
    endloop
  endfacet
  facet normal -0.453991 -0.891006 0
    outer loop
      vertex 1.23664 0.572949 0
      vertex 2.07295 0.146831 5.5
      vertex 1.23664 0.572949 5.5
    endloop
  endfacet
  facet normal -0.453991 -0.891006 -0
    outer loop
      vertex 2.07295 0.146831 5.5
      vertex 1.23664 0.572949 0
      vertex 2.07295 0.146831 0
    endloop
  endfacet
  facet normal 0.156435 -0.987688 0
    outer loop
      vertex 65 0 0
      vertex 65.927 0.146831 5.5
      vertex 65 0 5.5
    endloop
  endfacet
  facet normal 0.156435 -0.987688 0
    outer loop
      vertex 65.927 0.146831 5.5
      vertex 65 0 0
      vertex 65.927 0.146831 0
    endloop
  endfacet
  facet normal 0.987689 -0.156432 0
    outer loop
      vertex 67.8532 2.07295 5.5
      vertex 68 3 0
      vertex 68 3 5.5
    endloop
  endfacet
  facet normal 0.987689 -0.156432 0
    outer loop
      vertex 68 3 0
      vertex 67.8532 2.07295 5.5
      vertex 67.8532 2.07295 0
    endloop
  endfacet
  facet normal 0.707106 -0.707107 0
    outer loop
      vertex 66.7634 0.572949 0
      vertex 67.427 1.23664 5.5
      vertex 66.7634 0.572949 5.5
    endloop
  endfacet
  facet normal 0.707106 -0.707107 0
    outer loop
      vertex 67.427 1.23664 5.5
      vertex 66.7634 0.572949 0
      vertex 67.427 1.23664 0
    endloop
  endfacet
  facet normal 0.453991 -0.891006 0
    outer loop
      vertex 65.927 0.146831 0
      vertex 66.7634 0.572949 5.5
      vertex 65.927 0.146831 5.5
    endloop
  endfacet
  facet normal 0.453991 -0.891006 0
    outer loop
      vertex 66.7634 0.572949 5.5
      vertex 65.927 0.146831 0
      vertex 66.7634 0.572949 0
    endloop
  endfacet
  facet normal 0.891004 -0.453996 0
    outer loop
      vertex 67.427 1.23664 5.5
      vertex 67.8532 2.07295 0
      vertex 67.8532 2.07295 5.5
    endloop
  endfacet
  facet normal 0.891004 -0.453996 0
    outer loop
      vertex 67.8532 2.07295 0
      vertex 67.427 1.23664 5.5
      vertex 67.427 1.23664 0
    endloop
  endfacet
  facet normal 0.987689 0.156432 0
    outer loop
      vertex 68 77 5.5
      vertex 67.8532 77.927 0
      vertex 67.8532 77.927 5.5
    endloop
  endfacet
  facet normal 0.987689 0.156432 0
    outer loop
      vertex 67.8532 77.927 0
      vertex 68 77 5.5
      vertex 68 77 0
    endloop
  endfacet
  facet normal 0.156432 0.987689 -0
    outer loop
      vertex 65.927 79.8532 0
      vertex 65 80 5.5
      vertex 65.927 79.8532 5.5
    endloop
  endfacet
  facet normal 0.156432 0.987689 0
    outer loop
      vertex 65 80 5.5
      vertex 65.927 79.8532 0
      vertex 65 80 0
    endloop
  endfacet
  facet normal 0.707107 0.707107 0
    outer loop
      vertex 67.427 78.7634 5.5
      vertex 66.7634 79.427 0
      vertex 66.7634 79.427 5.5
    endloop
  endfacet
  facet normal 0.707107 0.707107 0
    outer loop
      vertex 66.7634 79.427 0
      vertex 67.427 78.7634 5.5
      vertex 67.427 78.7634 0
    endloop
  endfacet
  facet normal 0.891004 0.453996 0
    outer loop
      vertex 67.8532 77.927 5.5
      vertex 67.427 78.7634 0
      vertex 67.427 78.7634 5.5
    endloop
  endfacet
  facet normal 0.891004 0.453996 0
    outer loop
      vertex 67.427 78.7634 0
      vertex 67.8532 77.927 5.5
      vertex 67.8532 77.927 0
    endloop
  endfacet
  facet normal 0.453996 0.891004 -0
    outer loop
      vertex 66.7634 79.427 0
      vertex 65.927 79.8532 5.5
      vertex 66.7634 79.427 5.5
    endloop
  endfacet
  facet normal 0.453996 0.891004 0
    outer loop
      vertex 65.927 79.8532 5.5
      vertex 66.7634 79.427 0
      vertex 65.927 79.8532 0
    endloop
  endfacet
  facet normal -0.156432 0.987689 0
    outer loop
      vertex 3 80 0
      vertex 2.07295 79.8532 5.5
      vertex 3 80 5.5
    endloop
  endfacet
  facet normal -0.156432 0.987689 0
    outer loop
      vertex 2.07295 79.8532 5.5
      vertex 3 80 0
      vertex 2.07295 79.8532 0
    endloop
  endfacet
  facet normal -0.987688 0.156435 0
    outer loop
      vertex 0 77 0
      vertex 0.146831 77.927 5.5
      vertex 0.146831 77.927 0
    endloop
  endfacet
  facet normal -0.987688 0.156435 0
    outer loop
      vertex 0.146831 77.927 5.5
      vertex 0 77 0
      vertex 0 77 5.5
    endloop
  endfacet
  facet normal -0.707107 0.707106 0
    outer loop
      vertex 0.572949 78.7634 0
      vertex 1.23664 79.427 5.5
      vertex 1.23664 79.427 0
    endloop
  endfacet
  facet normal -0.707107 0.707106 0
    outer loop
      vertex 1.23664 79.427 5.5
      vertex 0.572949 78.7634 0
      vertex 0.572949 78.7634 5.5
    endloop
  endfacet
  facet normal -0.453996 0.891004 0
    outer loop
      vertex 2.07295 79.8532 0
      vertex 1.23664 79.427 5.5
      vertex 2.07295 79.8532 5.5
    endloop
  endfacet
  facet normal -0.453996 0.891004 0
    outer loop
      vertex 1.23664 79.427 5.5
      vertex 2.07295 79.8532 0
      vertex 1.23664 79.427 0
    endloop
  endfacet
  facet normal -0.891006 0.453991 0
    outer loop
      vertex 0.146831 77.927 0
      vertex 0.572949 78.7634 5.5
      vertex 0.572949 78.7634 0
    endloop
  endfacet
  facet normal -0.891006 0.453991 0
    outer loop
      vertex 0.572949 78.7634 5.5
      vertex 0.146831 77.927 0
      vertex 0.146831 77.927 5.5
    endloop
  endfacet
  facet normal -1 0 0
    outer loop
      vertex 0 3 0
      vertex 0 77 5.5
      vertex 0 77 0
    endloop
  endfacet
  facet normal -1 -0 0
    outer loop
      vertex 0 77 5.5
      vertex 0 3 0
      vertex 0 3 5.5
    endloop
  endfacet
  facet normal 0 0 1
    outer loop
      vertex 16 80 5.5
      vertex 6.84161 77.5 5.5
      vertex 16 77.5 5.5
    endloop
  endfacet
  facet normal 0 0 1
    outer loop
      vertex 7 76.5 5.5
      vertex 5.1 76.5 5.5
      vertex 6.8287 75.4184 5.5
    endloop
  endfacet
  facet normal 0 0 1
    outer loop
      vertex 6.8287 75.4184 5.5
      vertex 5.02169 76.0056 5.5
      vertex 6.33156 74.4427 5.5
    endloop
  endfacet
  facet normal 0 0 1
    outer loop
      vertex 6.8287 75.4184 5.5
      vertex 5.1 76.5 5.5
      vertex 5.02169 76.0056 5.5
    endloop
  endfacet
  facet normal 0 0 1
    outer loop
      vertex 6.84161 77.5 5.5
      vertex 5.02169 76.9944 5.5
      vertex 5.1 76.5 5.5
    endloop
  endfacet
  facet normal 0 0 1
    outer loop
      vertex 6.84161 77.5 5.5
      vertex 4.79443 77.4405 5.5
      vertex 5.02169 76.9944 5.5
    endloop
  endfacet
  facet normal -0 0 1
    outer loop
      vertex 3 80 5.5
      vertex 6.84161 77.5 5.5
      vertex 16 80 5.5
    endloop
  endfacet
  facet normal 0 0 1
    outer loop
      vertex 6.84161 77.5 5.5
      vertex 4.44046 77.7944 5.5
      vertex 4.79443 77.4405 5.5
    endloop
  endfacet
  facet normal 0 0 1
    outer loop
      vertex 6.84161 77.5 5.5
      vertex 3 80 5.5
      vertex 4.44046 77.7944 5.5
    endloop
  endfacet
  facet normal 0 0 1
    outer loop
      vertex 4.44046 77.7944 5.5
      vertex 3 80 5.5
      vertex 3.99443 78.0217 5.5
    endloop
  endfacet
  facet normal 0 0 1
    outer loop
      vertex 3.99443 78.0217 5.5
      vertex 3 80 5.5
      vertex 3.5 78.1 5.5
    endloop
  endfacet
  facet normal 0 0 1
    outer loop
      vertex 3 80 5.5
      vertex 3.00557 78.0217 5.5
      vertex 3.5 78.1 5.5
    endloop
  endfacet
  facet normal -0 0 1
    outer loop
      vertex 2.07295 79.8532 5.5
      vertex 3.00557 78.0217 5.5
      vertex 3 80 5.5
    endloop
  endfacet
  facet normal 0 0 1
    outer loop
      vertex 3.00557 78.0217 5.5
      vertex 2.07295 79.8532 5.5
      vertex 2.55954 77.7944 5.5
    endloop
  endfacet
  facet normal -0 0 1
    outer loop
      vertex 1.23664 79.427 5.5
      vertex 2.55954 77.7944 5.5
      vertex 2.07295 79.8532 5.5
    endloop
  endfacet
  facet normal 0 0 1
    outer loop
      vertex 2.55954 77.7944 5.5
      vertex 1.23664 79.427 5.5
      vertex 2.20557 77.4405 5.5
    endloop
  endfacet
  facet normal -0 0 1
    outer loop
      vertex 0.572949 78.7634 5.5
      vertex 2.20557 77.4405 5.5
      vertex 1.23664 79.427 5.5
    endloop
  endfacet
  facet normal 0 0 1
    outer loop
      vertex 0 3 5.5
      vertex 2.5 6.84162 5.5
      vertex 0 77 5.5
    endloop
  endfacet
  facet normal -0 0 1
    outer loop
      vertex 0.146831 77.927 5.5
      vertex 2.20557 77.4405 5.5
      vertex 0.572949 78.7634 5.5
    endloop
  endfacet
  facet normal 0 0 1
    outer loop
      vertex 5.1 76.5 5.5
      vertex 7 76.5 5.5
      vertex 6.84161 77.5 5.5
    endloop
  endfacet
  facet normal -0 0 1
    outer loop
      vertex 4.79443 75.5595 5.5
      vertex 6.33156 74.4427 5.5
      vertex 5.02169 76.0056 5.5
    endloop
  endfacet
  facet normal 0 0 1
    outer loop
      vertex 6.33156 74.4427 5.5
      vertex 4.79443 75.5595 5.5
      vertex 5.55725 73.6684 5.5
    endloop
  endfacet
  facet normal -0 0 1
    outer loop
      vertex 4.44046 75.2056 5.5
      vertex 5.55725 73.6684 5.5
      vertex 4.79443 75.5595 5.5
    endloop
  endfacet
  facet normal 0 0 1
    outer loop
      vertex 5.55725 73.6684 5.5
      vertex 4.44046 75.2056 5.5
      vertex 4.58156 73.1713 5.5
    endloop
  endfacet
  facet normal -0 0 1
    outer loop
      vertex 3.99443 74.9783 5.5
      vertex 4.58156 73.1713 5.5
      vertex 4.44046 75.2056 5.5
    endloop
  endfacet
  facet normal -0 0 1
    outer loop
      vertex 3.5 74.9 5.5
      vertex 4.58156 73.1713 5.5
      vertex 3.99443 74.9783 5.5
    endloop
  endfacet
  facet normal 0 0 1
    outer loop
      vertex 3.5 74.9 5.5
      vertex 3.5 73 5.5
      vertex 4.58156 73.1713 5.5
    endloop
  endfacet
  facet normal 0 0 1
    outer loop
      vertex 2.5 73.1584 5.5
      vertex 3.5 74.9 5.5
      vertex 3.00557 74.9783 5.5
    endloop
  endfacet
  facet normal 0 0 1
    outer loop
      vertex 2.5 73.1584 5.5
      vertex 3.00557 74.9783 5.5
      vertex 2.55954 75.2056 5.5
    endloop
  endfacet
  facet normal 0 0 1
    outer loop
      vertex 3.5 74.9 5.5
      vertex 2.5 73.1584 5.5
      vertex 3.5 73 5.5
    endloop
  endfacet
  facet normal 0 0 1
    outer loop
      vertex 0 77 5.5
      vertex 2.20557 75.5595 5.5
      vertex 1.97831 76.0056 5.5
    endloop
  endfacet
  facet normal 0 0 1
    outer loop
      vertex 2.20557 75.5595 5.5
      vertex 2.5 73.1584 5.5
      vertex 2.55954 75.2056 5.5
    endloop
  endfacet
  facet normal 0 0 1
    outer loop
      vertex 5.1 3.5 5.5
      vertex 7 3.5 5.5
      vertex 6.8287 4.58156 5.5
    endloop
  endfacet
  facet normal 0 0 1
    outer loop
      vertex 62.9 3.5 5.5
      vertex 61 3.5 5.5
      vertex 61.1584 2.5 5.5
    endloop
  endfacet
  facet normal 0 0 1
    outer loop
      vertex 62.9 76.5 5.5
      vertex 61 76.5 5.5
      vertex 61.1713 75.4184 5.5
    endloop
  endfacet
  facet normal 0 0 1
    outer loop
      vertex 6.8287 4.58156 5.5
      vertex 5.02169 3.99443 5.5
      vertex 5.1 3.5 5.5
    endloop
  endfacet
  facet normal 0 0 1
    outer loop
      vertex 6.33156 5.55725 5.5
      vertex 4.79443 4.44046 5.5
      vertex 5.02169 3.99443 5.5
    endloop
  endfacet
  facet normal 0 0 1
    outer loop
      vertex 4.44046 4.79443 5.5
      vertex 5.55725 6.33156 5.5
      vertex 4.58156 6.8287 5.5
    endloop
  endfacet
  facet normal 0 0 1
    outer loop
      vertex 5.55725 6.33156 5.5
      vertex 4.44046 4.79443 5.5
      vertex 4.79443 4.44046 5.5
    endloop
  endfacet
  facet normal 0 0 1
    outer loop
      vertex 4.58156 6.8287 5.5
      vertex 3.99443 5.02169 5.5
      vertex 4.44046 4.79443 5.5
    endloop
  endfacet
  facet normal 0 0 1
    outer loop
      vertex 3.5 7 5.5
      vertex 3.99443 5.02169 5.5
      vertex 4.58156 6.8287 5.5
    endloop
  endfacet
  facet normal 0 0 1
    outer loop
      vertex 3.5 7 5.5
      vertex 3.5 5.1 5.5
      vertex 3.99443 5.02169 5.5
    endloop
  endfacet
  facet normal -0 0 1
    outer loop
      vertex 2.5 6.84162 5.5
      vertex 3.5 5.1 5.5
      vertex 3.5 7 5.5
    endloop
  endfacet
  facet normal 0 0 1
    outer loop
      vertex 3.5 5.1 5.5
      vertex 2.5 6.84162 5.5
      vertex 3.00557 5.02169 5.5
    endloop
  endfacet
  facet normal 0 0 1
    outer loop
      vertex 3.00557 5.02169 5.5
      vertex 2.5 6.84162 5.5
      vertex 2.55954 4.79443 5.5
    endloop
  endfacet
  facet normal 0 0 1
    outer loop
      vertex 2.5 6.84162 5.5
      vertex 2.20557 4.44046 5.5
      vertex 2.55954 4.79443 5.5
    endloop
  endfacet
  facet normal 0 0 1
    outer loop
      vertex 1.9 76.5 5.5
      vertex 0 77 5.5
      vertex 1.97831 76.0056 5.5
    endloop
  endfacet
  facet normal 0 0 1
    outer loop
      vertex 2.20557 75.5595 5.5
      vertex 0 77 5.5
      vertex 2.5 73.1584 5.5
    endloop
  endfacet
  facet normal 0 0 1
    outer loop
      vertex 2.5 6.84162 5.5
      vertex 1.97831 3.99443 5.5
      vertex 2.20557 4.44046 5.5
    endloop
  endfacet
  facet normal 0 0 1
    outer loop
      vertex 1.97831 76.9944 5.5
      vertex 0 77 5.5
      vertex 1.9 76.5 5.5
    endloop
  endfacet
  facet normal 0 0 1
    outer loop
      vertex 2.5 73.1584 5.5
      vertex 0 77 5.5
      vertex 2.5 6.84162 5.5
    endloop
  endfacet
  facet normal 0 0 1
    outer loop
      vertex 68 77 5.5
      vertex 65.5 73.1584 5.5
      vertex 68 3 5.5
    endloop
  endfacet
  facet normal 0 0 1
    outer loop
      vertex 68 3 5.5
      vertex 66.0217 3.99443 5.5
      vertex 66.1 3.5 5.5
    endloop
  endfacet
  facet normal 0 0 1
    outer loop
      vertex 65.5 73.1584 5.5
      vertex 66.0217 76.0056 5.5
      vertex 65.7944 75.5595 5.5
    endloop
  endfacet
  facet normal -0 0 1
    outer loop
      vertex 65.5 6.84161 5.5
      vertex 68 3 5.5
      vertex 65.5 73.1584 5.5
    endloop
  endfacet
  facet normal -0 -0 1
    outer loop
      vertex 65.7944 4.44046 5.5
      vertex 68 3 5.5
      vertex 65.5 6.84161 5.5
    endloop
  endfacet
  facet normal -0 0 1
    outer loop
      vertex 65.4405 75.2056 5.5
      vertex 65.5 73.1584 5.5
      vertex 65.7944 75.5595 5.5
    endloop
  endfacet
  facet normal -0 0 1
    outer loop
      vertex 64.9944 74.9783 5.5
      vertex 65.5 73.1584 5.5
      vertex 65.4405 75.2056 5.5
    endloop
  endfacet
  facet normal -0 0 1
    outer loop
      vertex 64.5 74.9 5.5
      vertex 65.5 73.1584 5.5
      vertex 64.9944 74.9783 5.5
    endloop
  endfacet
  facet normal 0 0 1
    outer loop
      vertex 64.5 74.9 5.5
      vertex 64.5 73 5.5
      vertex 65.5 73.1584 5.5
    endloop
  endfacet
  facet normal 0 0 1
    outer loop
      vertex 64.0056 74.9783 5.5
      vertex 64.5 73 5.5
      vertex 64.5 74.9 5.5
    endloop
  endfacet
  facet normal 0 0 1
    outer loop
      vertex 63.4184 73.1713 5.5
      vertex 64.0056 74.9783 5.5
      vertex 63.5595 75.2056 5.5
    endloop
  endfacet
  facet normal 0 0 1
    outer loop
      vertex 64.0056 74.9783 5.5
      vertex 63.4184 73.1713 5.5
      vertex 64.5 73 5.5
    endloop
  endfacet
  facet normal 0 0 1
    outer loop
      vertex 62.4427 73.6684 5.5
      vertex 63.5595 75.2056 5.5
      vertex 63.2056 75.5595 5.5
    endloop
  endfacet
  facet normal 0 0 1
    outer loop
      vertex 61.6684 74.4427 5.5
      vertex 63.2056 75.5595 5.5
      vertex 62.9783 76.0056 5.5
    endloop
  endfacet
  facet normal 0 0 1
    outer loop
      vertex 61.1713 75.4184 5.5
      vertex 62.9783 76.0056 5.5
      vertex 62.9 76.5 5.5
    endloop
  endfacet
  facet normal 0 0 1
    outer loop
      vertex 63.5595 75.2056 5.5
      vertex 62.4427 73.6684 5.5
      vertex 63.4184 73.1713 5.5
    endloop
  endfacet
  facet normal 0 0 1
    outer loop
      vertex 66.0217 76.9944 5.5
      vertex 68 77 5.5
      vertex 67.8532 77.927 5.5
    endloop
  endfacet
  facet normal 0 0 1
    outer loop
      vertex 66.0217 76.0056 5.5
      vertex 68 77 5.5
      vertex 66.1 76.5 5.5
    endloop
  endfacet
  facet normal 0 0 1
    outer loop
      vertex 65.7944 77.4405 5.5
      vertex 67.8532 77.927 5.5
      vertex 67.427 78.7634 5.5
    endloop
  endfacet
  facet normal 0 0 1
    outer loop
      vertex 65.5 73.1584 5.5
      vertex 68 77 5.5
      vertex 66.0217 76.0056 5.5
    endloop
  endfacet
  facet normal 0 0 1
    outer loop
      vertex 65.7944 77.4405 5.5
      vertex 67.427 78.7634 5.5
      vertex 66.7634 79.427 5.5
    endloop
  endfacet
  facet normal -0 0 1
    outer loop
      vertex 66.0217 3.00557 5.5
      vertex 68 3 5.5
      vertex 66.1 3.5 5.5
    endloop
  endfacet
  facet normal 0 0 1
    outer loop
      vertex 68 3 5.5
      vertex 66.0217 3.00557 5.5
      vertex 67.8532 2.07295 5.5
    endloop
  endfacet
  facet normal 0 0 1
    outer loop
      vertex 68 77 5.5
      vertex 66.0217 76.9944 5.5
      vertex 66.1 76.5 5.5
    endloop
  endfacet
  facet normal 0 0 1
    outer loop
      vertex 65.4405 77.7944 5.5
      vertex 66.7634 79.427 5.5
      vertex 65.927 79.8532 5.5
    endloop
  endfacet
  facet normal 0 0 1
    outer loop
      vertex 67.8532 77.927 5.5
      vertex 65.7944 77.4405 5.5
      vertex 66.0217 76.9944 5.5
    endloop
  endfacet
  facet normal 0 0 1
    outer loop
      vertex 66.7634 79.427 5.5
      vertex 65.4405 77.7944 5.5
      vertex 65.7944 77.4405 5.5
    endloop
  endfacet
  facet normal 0 0 1
    outer loop
      vertex 64.9944 78.0217 5.5
      vertex 65.927 79.8532 5.5
      vertex 65 80 5.5
    endloop
  endfacet
  facet normal 0 0 1
    outer loop
      vertex 65.927 79.8532 5.5
      vertex 64.9944 78.0217 5.5
      vertex 65.4405 77.7944 5.5
    endloop
  endfacet
  facet normal 0 0 1
    outer loop
      vertex 65 80 5.5
      vertex 64.5 78.1 5.5
      vertex 64.9944 78.0217 5.5
    endloop
  endfacet
  facet normal 0 0 1
    outer loop
      vertex 65 80 5.5
      vertex 64.0056 78.0217 5.5
      vertex 64.5 78.1 5.5
    endloop
  endfacet
  facet normal 0 0 1
    outer loop
      vertex 65 80 5.5
      vertex 63.5595 77.7944 5.5
      vertex 64.0056 78.0217 5.5
    endloop
  endfacet
  facet normal 0 0 1
    outer loop
      vertex 61.1584 77.5 5.5
      vertex 63.5595 77.7944 5.5
      vertex 65 80 5.5
    endloop
  endfacet
  facet normal 0 0 1
    outer loop
      vertex 61.1584 77.5 5.5
      vertex 62.9 76.5 5.5
      vertex 62.9783 76.9944 5.5
    endloop
  endfacet
  facet normal 0 0 1
    outer loop
      vertex 63.2056 75.5595 5.5
      vertex 61.6684 74.4427 5.5
      vertex 62.4427 73.6684 5.5
    endloop
  endfacet
  facet normal 0 0 1
    outer loop
      vertex 61.1584 77.5 5.5
      vertex 62.9783 76.9944 5.5
      vertex 63.2056 77.4405 5.5
    endloop
  endfacet
  facet normal 0 0 1
    outer loop
      vertex 62.9783 76.0056 5.5
      vertex 61.1713 75.4184 5.5
      vertex 61.6684 74.4427 5.5
    endloop
  endfacet
  facet normal 0 0 1
    outer loop
      vertex 63.5595 77.7944 5.5
      vertex 61.1584 77.5 5.5
      vertex 63.2056 77.4405 5.5
    endloop
  endfacet
  facet normal 0 0 1
    outer loop
      vertex 61 76.5 5.5
      vertex 62.9 76.5 5.5
      vertex 61.1584 77.5 5.5
    endloop
  endfacet
  facet normal -0 0 1
    outer loop
      vertex 21 80 5.5
      vertex 61.1584 77.5 5.5
      vertex 65 80 5.5
    endloop
  endfacet
  facet normal 0 0 1
    outer loop
      vertex 61.1584 77.5 5.5
      vertex 21 80 5.5
      vertex 21 77.5 5.5
    endloop
  endfacet
  facet normal -0 0 1
    outer loop
      vertex 65.7944 2.55954 5.5
      vertex 67.8532 2.07295 5.5
      vertex 66.0217 3.00557 5.5
    endloop
  endfacet
  facet normal 0 0 1
    outer loop
      vertex 67.8532 2.07295 5.5
      vertex 65.7944 2.55954 5.5
      vertex 67.427 1.23664 5.5
    endloop
  endfacet
  facet normal 0 0 1
    outer loop
      vertex 67.427 1.23664 5.5
      vertex 65.7944 2.55954 5.5
      vertex 66.7634 0.572949 5.5
    endloop
  endfacet
  facet normal -0 0 1
    outer loop
      vertex 65.4405 2.20557 5.5
      vertex 66.7634 0.572949 5.5
      vertex 65.7944 2.55954 5.5
    endloop
  endfacet
  facet normal 0 0 1
    outer loop
      vertex 66.7634 0.572949 5.5
      vertex 65.4405 2.20557 5.5
      vertex 65.927 0.146831 5.5
    endloop
  endfacet
  facet normal -0 0 1
    outer loop
      vertex 64.9944 1.97831 5.5
      vertex 65.927 0.146831 5.5
      vertex 65.4405 2.20557 5.5
    endloop
  endfacet
  facet normal 0 0 1
    outer loop
      vertex 65.927 0.146831 5.5
      vertex 64.9944 1.97831 5.5
      vertex 65 0 5.5
    endloop
  endfacet
  facet normal -0 0 1
    outer loop
      vertex 64.5 1.9 5.5
      vertex 65 0 5.5
      vertex 64.9944 1.97831 5.5
    endloop
  endfacet
  facet normal 0 0 1
    outer loop
      vertex 64.0056 1.97831 5.5
      vertex 65 0 5.5
      vertex 64.5 1.9 5.5
    endloop
  endfacet
  facet normal 0 0 1
    outer loop
      vertex 63.5595 2.20557 5.5
      vertex 65 0 5.5
      vertex 64.0056 1.97831 5.5
    endloop
  endfacet
  facet normal -0 0 1
    outer loop
      vertex 61.1584 2.5 5.5
      vertex 63.5595 2.20557 5.5
      vertex 63.2056 2.55954 5.5
    endloop
  endfacet
  facet normal -0 0 1
    outer loop
      vertex 61.1713 4.58156 5.5
      vertex 62.9783 3.99443 5.5
      vertex 61.6684 5.55725 5.5
    endloop
  endfacet
  facet normal 0 0 1
    outer loop
      vertex 62.9783 3.99443 5.5
      vertex 61.1713 4.58156 5.5
      vertex 62.9 3.5 5.5
    endloop
  endfacet
  facet normal 0 0 1
    outer loop
      vertex 61 3.5 5.5
      vertex 62.9 3.5 5.5
      vertex 61.1713 4.58156 5.5
    endloop
  endfacet
  facet normal 0 0 1
    outer loop
      vertex 62.9 3.5 5.5
      vertex 61.1584 2.5 5.5
      vertex 62.9783 3.00557 5.5
    endloop
  endfacet
  facet normal 0 0 1
    outer loop
      vertex 62.9783 3.00557 5.5
      vertex 61.1584 2.5 5.5
      vertex 63.2056 2.55954 5.5
    endloop
  endfacet
  facet normal 0 0 1
    outer loop
      vertex 63.5595 2.20557 5.5
      vertex 61.1584 2.5 5.5
      vertex 65 0 5.5
    endloop
  endfacet
  facet normal -0 0 1
    outer loop
      vertex 6.84162 2.5 5.5
      vertex 65 0 5.5
      vertex 61.1584 2.5 5.5
    endloop
  endfacet
  facet normal 0 0 1
    outer loop
      vertex 5.02169 3.99443 5.5
      vertex 6.8287 4.58156 5.5
      vertex 6.33156 5.55725 5.5
    endloop
  endfacet
  facet normal 0 0 1
    outer loop
      vertex 4.79443 4.44046 5.5
      vertex 6.33156 5.55725 5.5
      vertex 5.55725 6.33156 5.5
    endloop
  endfacet
  facet normal 0 0 1
    outer loop
      vertex 7 3.5 5.5
      vertex 5.1 3.5 5.5
      vertex 6.84162 2.5 5.5
    endloop
  endfacet
  facet normal -0 0 1
    outer loop
      vertex 5.02169 3.00557 5.5
      vertex 6.84162 2.5 5.5
      vertex 5.1 3.5 5.5
    endloop
  endfacet
  facet normal -0 0 1
    outer loop
      vertex 4.79443 2.55954 5.5
      vertex 6.84162 2.5 5.5
      vertex 5.02169 3.00557 5.5
    endloop
  endfacet
  facet normal 0 0 1
    outer loop
      vertex 4.44046 2.20557 5.5
      vertex 6.84162 2.5 5.5
      vertex 4.79443 2.55954 5.5
    endloop
  endfacet
  facet normal 0 0 1
    outer loop
      vertex 6.84162 2.5 5.5
      vertex 4.44046 2.20557 5.5
      vertex 3 0 5.5
    endloop
  endfacet
  facet normal 0 0 1
    outer loop
      vertex 3 0 5.5
      vertex 4.44046 2.20557 5.5
      vertex 3.99443 1.97831 5.5
    endloop
  endfacet
  facet normal 0 0 1
    outer loop
      vertex 3 0 5.5
      vertex 3.99443 1.97831 5.5
      vertex 3.5 1.9 5.5
    endloop
  endfacet
  facet normal 0 0 1
    outer loop
      vertex 6.84162 2.5 5.5
      vertex 3 0 5.5
      vertex 65 0 5.5
    endloop
  endfacet
  facet normal 0 0 1
    outer loop
      vertex 3.00557 1.97831 5.5
      vertex 3 0 5.5
      vertex 3.5 1.9 5.5
    endloop
  endfacet
  facet normal 0 0 1
    outer loop
      vertex 2.07295 0.146831 5.5
      vertex 3.00557 1.97831 5.5
      vertex 2.55954 2.20557 5.5
    endloop
  endfacet
  facet normal 0 0 1
    outer loop
      vertex 1.23664 0.572949 5.5
      vertex 2.55954 2.20557 5.5
      vertex 2.20557 2.55954 5.5
    endloop
  endfacet
  facet normal 0 0 1
    outer loop
      vertex 3.00557 1.97831 5.5
      vertex 2.07295 0.146831 5.5
      vertex 3 0 5.5
    endloop
  endfacet
  facet normal 0 0 1
    outer loop
      vertex 0.146831 2.07295 5.5
      vertex 2.20557 2.55954 5.5
      vertex 1.97831 3.00557 5.5
    endloop
  endfacet
  facet normal 0 0 1
    outer loop
      vertex 3.67382e-016 3 5.5
      vertex 1.97831 3.00557 5.5
      vertex 1.9 3.5 5.5
    endloop
  endfacet
  facet normal 0 0 1
    outer loop
      vertex 2.55954 2.20557 5.5
      vertex 1.23664 0.572949 5.5
      vertex 2.07295 0.146831 5.5
    endloop
  endfacet
  facet normal 0 0 1
    outer loop
      vertex 2.5 6.84162 5.5
      vertex 0 3 5.5
      vertex 1.97831 3.99443 5.5
    endloop
  endfacet
  facet normal 0 0 1
    outer loop
      vertex 2.20557 77.4405 5.5
      vertex 0.146831 77.927 5.5
      vertex 1.97831 76.9944 5.5
    endloop
  endfacet
  facet normal 0 -0 1
    outer loop
      vertex 3.67382e-016 3 5.5
      vertex 1.97831 3.99443 5.5
      vertex 0 3 5.5
    endloop
  endfacet
  facet normal 0 0 1
    outer loop
      vertex 1.97831 76.9944 5.5
      vertex 0.146831 77.927 5.5
      vertex 0 77 5.5
    endloop
  endfacet
  facet normal 0 0 1
    outer loop
      vertex 1.97831 3.00557 5.5
      vertex 3.67382e-016 3 5.5
      vertex 0.146831 2.07295 5.5
    endloop
  endfacet
  facet normal 0 0 1
    outer loop
      vertex 2.20557 2.55954 5.5
      vertex 0.146831 2.07295 5.5
      vertex 0.572949 1.23664 5.5
    endloop
  endfacet
  facet normal 0 0 1
    outer loop
      vertex 2.20557 2.55954 5.5
      vertex 0.572949 1.23664 5.5
      vertex 1.23664 0.572949 5.5
    endloop
  endfacet
  facet normal 0 0 1
    outer loop
      vertex 1.97831 3.99443 5.5
      vertex 3.67382e-016 3 5.5
      vertex 1.9 3.5 5.5
    endloop
  endfacet
  facet normal 0 0 1
    outer loop
      vertex 68 3 5.5
      vertex 65.7944 4.44046 5.5
      vertex 66.0217 3.99443 5.5
    endloop
  endfacet
  facet normal 0 0 1
    outer loop
      vertex 65.5 6.84161 5.5
      vertex 65.4405 4.79443 5.5
      vertex 65.7944 4.44046 5.5
    endloop
  endfacet
  facet normal 0 0 1
    outer loop
      vertex 65.5 6.84161 5.5
      vertex 64.9944 5.02169 5.5
      vertex 65.4405 4.79443 5.5
    endloop
  endfacet
  facet normal 0 0 1
    outer loop
      vertex 64.5 5.1 5.5
      vertex 65.5 6.84161 5.5
      vertex 64.5 7 5.5
    endloop
  endfacet
  facet normal 0 0 1
    outer loop
      vertex 65.5 6.84161 5.5
      vertex 64.5 5.1 5.5
      vertex 64.9944 5.02169 5.5
    endloop
  endfacet
  facet normal 0 0 1
    outer loop
      vertex 64.5 7 5.5
      vertex 64.0056 5.02169 5.5
      vertex 64.5 5.1 5.5
    endloop
  endfacet
  facet normal -0 0 1
    outer loop
      vertex 63.4184 6.8287 5.5
      vertex 64.0056 5.02169 5.5
      vertex 64.5 7 5.5
    endloop
  endfacet
  facet normal 0 0 1
    outer loop
      vertex 64.0056 5.02169 5.5
      vertex 63.4184 6.8287 5.5
      vertex 63.5595 4.79443 5.5
    endloop
  endfacet
  facet normal -0 0 1
    outer loop
      vertex 62.4427 6.33156 5.5
      vertex 63.5595 4.79443 5.5
      vertex 63.4184 6.8287 5.5
    endloop
  endfacet
  facet normal 0 0 1
    outer loop
      vertex 63.5595 4.79443 5.5
      vertex 62.4427 6.33156 5.5
      vertex 63.2056 4.44046 5.5
    endloop
  endfacet
  facet normal -0 0 1
    outer loop
      vertex 61.6684 5.55725 5.5
      vertex 63.2056 4.44046 5.5
      vertex 62.4427 6.33156 5.5
    endloop
  endfacet
  facet normal 0 0 1
    outer loop
      vertex 63.2056 4.44046 5.5
      vertex 61.6684 5.55725 5.5
      vertex 62.9783 3.99443 5.5
    endloop
  endfacet
  facet normal 1 -0 0
    outer loop
      vertex 68 3 5.5
      vertex 68 77 0
      vertex 68 77 5.5
    endloop
  endfacet
  facet normal 1 0 0
    outer loop
      vertex 68 77 0
      vertex 68 3 5.5
      vertex 68 3 0
    endloop
  endfacet
  facet normal 0 1 0
    outer loop
      vertex 65 80 5.5
      vertex 21 80 4
      vertex 21 80 5.5
    endloop
  endfacet
  facet normal 0 1 0
    outer loop
      vertex 3 80 0
      vertex 21 80 4
      vertex 65 80 0
    endloop
  endfacet
  facet normal 0 1 -0
    outer loop
      vertex 65 80 0
      vertex 21 80 4
      vertex 65 80 5.5
    endloop
  endfacet
  facet normal 0 1 -0
    outer loop
      vertex 16 80 4
      vertex 3 80 5.5
      vertex 16 80 5.5
    endloop
  endfacet
  facet normal 0 1 0
    outer loop
      vertex 16 80 4
      vertex 3 80 0
      vertex 3 80 5.5
    endloop
  endfacet
  facet normal 0 1 0
    outer loop
      vertex 21 80 4
      vertex 3 80 0
      vertex 16 80 4
    endloop
  endfacet
  facet normal 0 0 -1
    outer loop
      vertex 5.1 76.5 0
      vertex 7 76.5 0
      vertex 6.8287 75.4184 0
    endloop
  endfacet
  facet normal 0 0 -1
    outer loop
      vertex 62.9 76.5 0
      vertex 61 76.5 0
      vertex 61.1584 77.5 0
    endloop
  endfacet
  facet normal 0 0 -1
    outer loop
      vertex 62.9 3.5 0
      vertex 61 3.5 0
      vertex 61.1713 4.58156 0
    endloop
  endfacet
  facet normal 0 0 -1
    outer loop
      vertex 5.1 3.5 0
      vertex 7 3.5 0
      vertex 6.84162 2.5 0
    endloop
  endfacet
  facet normal 0 0 -1
    outer loop
      vertex 6.8287 75.4184 0
      vertex 5.02169 76.0056 0
      vertex 5.1 76.5 0
    endloop
  endfacet
  facet normal 0 0 -1
    outer loop
      vertex 6.33156 74.4427 0
      vertex 4.79443 75.5595 0
      vertex 5.02169 76.0056 0
    endloop
  endfacet
  facet normal 0 0 -1
    outer loop
      vertex 4.44046 75.2056 0
      vertex 5.55725 73.6684 0
      vertex 4.58156 73.1713 0
    endloop
  endfacet
  facet normal 0 0 -1
    outer loop
      vertex 5.55725 73.6684 0
      vertex 4.44046 75.2056 0
      vertex 4.79443 75.5595 0
    endloop
  endfacet
  facet normal 0 0 -1
    outer loop
      vertex 4.58156 73.1713 0
      vertex 3.99443 74.9783 0
      vertex 4.44046 75.2056 0
    endloop
  endfacet
  facet normal 0 0 -1
    outer loop
      vertex 3.5 73 0
      vertex 3.99443 74.9783 0
      vertex 4.58156 73.1713 0
    endloop
  endfacet
  facet normal 0 0 -1
    outer loop
      vertex 3.5 73 0
      vertex 3.5 74.9 0
      vertex 3.99443 74.9783 0
    endloop
  endfacet
  facet normal 0 0 -1
    outer loop
      vertex 2.5 73.1584 0
      vertex 3.5 74.9 0
      vertex 3.5 73 0
    endloop
  endfacet
  facet normal -0 0 -1
    outer loop
      vertex 3.5 74.9 0
      vertex 2.5 73.1584 0
      vertex 3.00557 74.9783 0
    endloop
  endfacet
  facet normal -0 0 -1
    outer loop
      vertex 3.00557 74.9783 0
      vertex 2.5 73.1584 0
      vertex 2.55954 75.2056 0
    endloop
  endfacet
  facet normal 0 0 -1
    outer loop
      vertex 2.5 73.1584 0
      vertex 2.20557 75.5595 0
      vertex 2.55954 75.2056 0
    endloop
  endfacet
  facet normal -0 0 -1
    outer loop
      vertex 2.5 6.84162 0
      vertex 0 3 0
      vertex 2.5 73.1584 0
    endloop
  endfacet
  facet normal 0 0 -1
    outer loop
      vertex 3.67382e-016 3 0
      vertex 2.20557 4.44046 0
      vertex 1.97831 3.99443 0
    endloop
  endfacet
  facet normal 0 0 -1
    outer loop
      vertex 0 77 0
      vertex 2.5 73.1584 0
      vertex 0 3 0
    endloop
  endfacet
  facet normal 0 0 -1
    outer loop
      vertex 3.67382e-016 3 0
      vertex 1.97831 3.99443 0
      vertex 1.9 3.5 0
    endloop
  endfacet
  facet normal 0 0 -1
    outer loop
      vertex 2.5 73.1584 0
      vertex 0 77 0
      vertex 2.20557 75.5595 0
    endloop
  endfacet
  facet normal 0 0 -1
    outer loop
      vertex 4.79443 4.44046 0
      vertex 6.33156 5.55725 0
      vertex 5.02169 3.99443 0
    endloop
  endfacet
  facet normal -0 0 -1
    outer loop
      vertex 6.33156 5.55725 0
      vertex 4.79443 4.44046 0
      vertex 5.55725 6.33156 0
    endloop
  endfacet
  facet normal 0 0 -1
    outer loop
      vertex 4.44046 4.79443 0
      vertex 5.55725 6.33156 0
      vertex 4.79443 4.44046 0
    endloop
  endfacet
  facet normal -0 0 -1
    outer loop
      vertex 5.55725 6.33156 0
      vertex 4.44046 4.79443 0
      vertex 4.58156 6.8287 0
    endloop
  endfacet
  facet normal 0 0 -1
    outer loop
      vertex 3.99443 5.02169 0
      vertex 4.58156 6.8287 0
      vertex 4.44046 4.79443 0
    endloop
  endfacet
  facet normal 0 0 -1
    outer loop
      vertex 3.5 5.1 0
      vertex 4.58156 6.8287 0
      vertex 3.99443 5.02169 0
    endloop
  endfacet
  facet normal 0 0 -1
    outer loop
      vertex 3.5 5.1 0
      vertex 3.5 7 0
      vertex 4.58156 6.8287 0
    endloop
  endfacet
  facet normal 0 0 -1
    outer loop
      vertex 2.5 6.84162 0
      vertex 3.5 5.1 0
      vertex 3.00557 5.02169 0
    endloop
  endfacet
  facet normal 0 0 -1
    outer loop
      vertex 2.5 6.84162 0
      vertex 3.00557 5.02169 0
      vertex 2.55954 4.79443 0
    endloop
  endfacet
  facet normal 0 0 -1
    outer loop
      vertex 3.5 5.1 0
      vertex 2.5 6.84162 0
      vertex 3.5 7 0
    endloop
  endfacet
  facet normal 0 0 -1
    outer loop
      vertex 0 3 0
      vertex 2.5 6.84162 0
      vertex 2.20557 4.44046 0
    endloop
  endfacet
  facet normal 0 0 -1
    outer loop
      vertex 2.20557 4.44046 0
      vertex 2.5 6.84162 0
      vertex 2.55954 4.79443 0
    endloop
  endfacet
  facet normal 0 0 -1
    outer loop
      vertex 68 3 0
      vertex 65.5 6.84161 0
      vertex 68 77 0
    endloop
  endfacet
  facet normal 0 0 -1
    outer loop
      vertex 68 77 0
      vertex 66.0217 76.0056 0
      vertex 66.1 76.5 0
    endloop
  endfacet
  facet normal 0 0 -1
    outer loop
      vertex 65.5 6.84161 0
      vertex 66.0217 3.99443 0
      vertex 65.7944 4.44046 0
    endloop
  endfacet
  facet normal 0 0 -1
    outer loop
      vertex 65.5 73.1584 0
      vertex 68 77 0
      vertex 65.5 6.84161 0
    endloop
  endfacet
  facet normal 0 -0 -1
    outer loop
      vertex 65.7944 75.5595 0
      vertex 68 77 0
      vertex 65.5 73.1584 0
    endloop
  endfacet
  facet normal 0 0 -1
    outer loop
      vertex 65.4405 4.79443 0
      vertex 65.5 6.84161 0
      vertex 65.7944 4.44046 0
    endloop
  endfacet
  facet normal 0 0 -1
    outer loop
      vertex 64.9944 5.02169 0
      vertex 65.5 6.84161 0
      vertex 65.4405 4.79443 0
    endloop
  endfacet
  facet normal 0 0 -1
    outer loop
      vertex 64.5 5.1 0
      vertex 65.5 6.84161 0
      vertex 64.9944 5.02169 0
    endloop
  endfacet
  facet normal 0 0 -1
    outer loop
      vertex 64.5 5.1 0
      vertex 64.5 7 0
      vertex 65.5 6.84161 0
    endloop
  endfacet
  facet normal 0 0 -1
    outer loop
      vertex 64.0056 5.02169 0
      vertex 64.5 7 0
      vertex 64.5 5.1 0
    endloop
  endfacet
  facet normal 0 0 -1
    outer loop
      vertex 63.4184 6.8287 0
      vertex 64.0056 5.02169 0
      vertex 63.5595 4.79443 0
    endloop
  endfacet
  facet normal 0 0 -1
    outer loop
      vertex 64.0056 5.02169 0
      vertex 63.4184 6.8287 0
      vertex 64.5 7 0
    endloop
  endfacet
  facet normal 0 0 -1
    outer loop
      vertex 62.4427 6.33156 0
      vertex 63.5595 4.79443 0
      vertex 63.2056 4.44046 0
    endloop
  endfacet
  facet normal 0 0 -1
    outer loop
      vertex 61.6684 5.55725 0
      vertex 63.2056 4.44046 0
      vertex 62.9783 3.99443 0
    endloop
  endfacet
  facet normal 0 0 -1
    outer loop
      vertex 61.1713 4.58156 0
      vertex 62.9783 3.99443 0
      vertex 62.9 3.5 0
    endloop
  endfacet
  facet normal 0 0 -1
    outer loop
      vertex 63.5595 4.79443 0
      vertex 62.4427 6.33156 0
      vertex 63.4184 6.8287 0
    endloop
  endfacet
  facet normal 0 0 -1
    outer loop
      vertex 66.0217 3.00557 0
      vertex 68 3 0
      vertex 67.8532 2.07295 0
    endloop
  endfacet
  facet normal 0 0 -1
    outer loop
      vertex 66.0217 3.99443 0
      vertex 68 3 0
      vertex 66.1 3.5 0
    endloop
  endfacet
  facet normal 0 0 -1
    outer loop
      vertex 65.7944 2.55954 0
      vertex 67.8532 2.07295 0
      vertex 67.427 1.23664 0
    endloop
  endfacet
  facet normal 0 0 -1
    outer loop
      vertex 65.5 6.84161 0
      vertex 68 3 0
      vertex 66.0217 3.99443 0
    endloop
  endfacet
  facet normal 0 0 -1
    outer loop
      vertex 65.7944 2.55954 0
      vertex 67.427 1.23664 0
      vertex 66.7634 0.572949 0
    endloop
  endfacet
  facet normal 0 0 -1
    outer loop
      vertex 66.0217 76.9944 0
      vertex 68 77 0
      vertex 66.1 76.5 0
    endloop
  endfacet
  facet normal -0 0 -1
    outer loop
      vertex 68 77 0
      vertex 66.0217 76.9944 0
      vertex 67.8532 77.927 0
    endloop
  endfacet
  facet normal 0 0 -1
    outer loop
      vertex 68 3 0
      vertex 66.0217 3.00557 0
      vertex 66.1 3.5 0
    endloop
  endfacet
  facet normal 0 0 -1
    outer loop
      vertex 65.4405 2.20557 0
      vertex 66.7634 0.572949 0
      vertex 65.927 0.146831 0
    endloop
  endfacet
  facet normal 0 0 -1
    outer loop
      vertex 67.8532 2.07295 0
      vertex 65.7944 2.55954 0
      vertex 66.0217 3.00557 0
    endloop
  endfacet
  facet normal 0 0 -1
    outer loop
      vertex 66.7634 0.572949 0
      vertex 65.4405 2.20557 0
      vertex 65.7944 2.55954 0
    endloop
  endfacet
  facet normal 0 0 -1
    outer loop
      vertex 64.9944 1.97831 0
      vertex 65.927 0.146831 0
      vertex 65 0 0
    endloop
  endfacet
  facet normal 0 0 -1
    outer loop
      vertex 65.927 0.146831 0
      vertex 64.9944 1.97831 0
      vertex 65.4405 2.20557 0
    endloop
  endfacet
  facet normal 0 0 -1
    outer loop
      vertex 65 0 0
      vertex 64.5 1.9 0
      vertex 64.9944 1.97831 0
    endloop
  endfacet
  facet normal 0 0 -1
    outer loop
      vertex 65 0 0
      vertex 64.0056 1.97831 0
      vertex 64.5 1.9 0
    endloop
  endfacet
  facet normal 0 0 -1
    outer loop
      vertex 65 0 0
      vertex 63.5595 2.20557 0
      vertex 64.0056 1.97831 0
    endloop
  endfacet
  facet normal 0 0 -1
    outer loop
      vertex 61.1584 2.5 0
      vertex 63.5595 2.20557 0
      vertex 65 0 0
    endloop
  endfacet
  facet normal 0 0 -1
    outer loop
      vertex 61.1584 2.5 0
      vertex 62.9 3.5 0
      vertex 62.9783 3.00557 0
    endloop
  endfacet
  facet normal 0 0 -1
    outer loop
      vertex 63.2056 4.44046 0
      vertex 61.6684 5.55725 0
      vertex 62.4427 6.33156 0
    endloop
  endfacet
  facet normal 0 0 -1
    outer loop
      vertex 61.1584 2.5 0
      vertex 62.9783 3.00557 0
      vertex 63.2056 2.55954 0
    endloop
  endfacet
  facet normal 0 0 -1
    outer loop
      vertex 62.9783 3.99443 0
      vertex 61.1713 4.58156 0
      vertex 61.6684 5.55725 0
    endloop
  endfacet
  facet normal 0 0 -1
    outer loop
      vertex 63.5595 2.20557 0
      vertex 61.1584 2.5 0
      vertex 63.2056 2.55954 0
    endloop
  endfacet
  facet normal 0 0 -1
    outer loop
      vertex 61 3.5 0
      vertex 62.9 3.5 0
      vertex 61.1584 2.5 0
    endloop
  endfacet
  facet normal 0 0 -1
    outer loop
      vertex 65 0 0
      vertex 6.84162 2.5 0
      vertex 61.1584 2.5 0
    endloop
  endfacet
  facet normal 0 0 -1
    outer loop
      vertex 7 3.5 0
      vertex 5.1 3.5 0
      vertex 6.8287 4.58156 0
    endloop
  endfacet
  facet normal 0 0 -1
    outer loop
      vertex 5.02169 3.99443 0
      vertex 6.8287 4.58156 0
      vertex 5.1 3.5 0
    endloop
  endfacet
  facet normal -0 0 -1
    outer loop
      vertex 6.8287 4.58156 0
      vertex 5.02169 3.99443 0
      vertex 6.33156 5.55725 0
    endloop
  endfacet
  facet normal 0 0 -1
    outer loop
      vertex 6.84162 2.5 0
      vertex 5.02169 3.00557 0
      vertex 5.1 3.5 0
    endloop
  endfacet
  facet normal 0 0 -1
    outer loop
      vertex 6.84162 2.5 0
      vertex 4.79443 2.55954 0
      vertex 5.02169 3.00557 0
    endloop
  endfacet
  facet normal 0 0 -1
    outer loop
      vertex 3 0 0
      vertex 6.84162 2.5 0
      vertex 65 0 0
    endloop
  endfacet
  facet normal 0 -0 -1
    outer loop
      vertex 4.44046 2.20557 0
      vertex 6.84162 2.5 0
      vertex 3 0 0
    endloop
  endfacet
  facet normal -0 0 -1
    outer loop
      vertex 6.84162 2.5 0
      vertex 4.44046 2.20557 0
      vertex 4.79443 2.55954 0
    endloop
  endfacet
  facet normal 0 0 -1
    outer loop
      vertex 4.44046 2.20557 0
      vertex 3 0 0
      vertex 3.99443 1.97831 0
    endloop
  endfacet
  facet normal 0 0 -1
    outer loop
      vertex 3.99443 1.97831 0
      vertex 3 0 0
      vertex 3.5 1.9 0
    endloop
  endfacet
  facet normal 0 0 -1
    outer loop
      vertex 3 0 0
      vertex 3.00557 1.97831 0
      vertex 3.5 1.9 0
    endloop
  endfacet
  facet normal 0 0 -1
    outer loop
      vertex 2.07295 0.146831 0
      vertex 3.00557 1.97831 0
      vertex 3 0 0
    endloop
  endfacet
  facet normal -0 0 -1
    outer loop
      vertex 3.00557 1.97831 0
      vertex 2.07295 0.146831 0
      vertex 2.55954 2.20557 0
    endloop
  endfacet
  facet normal 0 0 -1
    outer loop
      vertex 1.23664 0.572949 0
      vertex 2.55954 2.20557 0
      vertex 2.07295 0.146831 0
    endloop
  endfacet
  facet normal -0 0 -1
    outer loop
      vertex 2.55954 2.20557 0
      vertex 1.23664 0.572949 0
      vertex 2.20557 2.55954 0
    endloop
  endfacet
  facet normal 0 0 -1
    outer loop
      vertex 0.572949 1.23664 0
      vertex 2.20557 2.55954 0
      vertex 1.23664 0.572949 0
    endloop
  endfacet
  facet normal -0 0 -1
    outer loop
      vertex 2.20557 2.55954 0
      vertex 0.146831 2.07295 0
      vertex 1.97831 3.00557 0
    endloop
  endfacet
  facet normal 0 0 -1
    outer loop
      vertex 0.146831 2.07295 0
      vertex 2.20557 2.55954 0
      vertex 0.572949 1.23664 0
    endloop
  endfacet
  facet normal 0 0 -1
    outer loop
      vertex 65.7944 77.4405 0
      vertex 67.8532 77.927 0
      vertex 66.0217 76.9944 0
    endloop
  endfacet
  facet normal -0 0 -1
    outer loop
      vertex 67.8532 77.927 0
      vertex 65.7944 77.4405 0
      vertex 67.427 78.7634 0
    endloop
  endfacet
  facet normal -0 0 -1
    outer loop
      vertex 67.427 78.7634 0
      vertex 65.7944 77.4405 0
      vertex 66.7634 79.427 0
    endloop
  endfacet
  facet normal 0 0 -1
    outer loop
      vertex 65.4405 77.7944 0
      vertex 66.7634 79.427 0
      vertex 65.7944 77.4405 0
    endloop
  endfacet
  facet normal -0 0 -1
    outer loop
      vertex 66.7634 79.427 0
      vertex 65.4405 77.7944 0
      vertex 65.927 79.8532 0
    endloop
  endfacet
  facet normal 0 0 -1
    outer loop
      vertex 64.9944 78.0217 0
      vertex 65.927 79.8532 0
      vertex 65.4405 77.7944 0
    endloop
  endfacet
  facet normal -0 0 -1
    outer loop
      vertex 65.927 79.8532 0
      vertex 64.9944 78.0217 0
      vertex 65 80 0
    endloop
  endfacet
  facet normal 0 0 -1
    outer loop
      vertex 64.5 78.1 0
      vertex 65 80 0
      vertex 64.9944 78.0217 0
    endloop
  endfacet
  facet normal 0 0 -1
    outer loop
      vertex 64.0056 78.0217 0
      vertex 65 80 0
      vertex 64.5 78.1 0
    endloop
  endfacet
  facet normal 0 0 -1
    outer loop
      vertex 63.5595 77.7944 0
      vertex 65 80 0
      vertex 64.0056 78.0217 0
    endloop
  endfacet
  facet normal 0 0 -1
    outer loop
      vertex 61.1584 77.5 0
      vertex 63.5595 77.7944 0
      vertex 63.2056 77.4405 0
    endloop
  endfacet
  facet normal 0 0 -1
    outer loop
      vertex 61.1713 75.4184 0
      vertex 62.9783 76.0056 0
      vertex 61.6684 74.4427 0
    endloop
  endfacet
  facet normal -0 0 -1
    outer loop
      vertex 62.9783 76.0056 0
      vertex 61.1713 75.4184 0
      vertex 62.9 76.5 0
    endloop
  endfacet
  facet normal 0 0 -1
    outer loop
      vertex 61 76.5 0
      vertex 62.9 76.5 0
      vertex 61.1713 75.4184 0
    endloop
  endfacet
  facet normal 0 0 -1
    outer loop
      vertex 62.9 76.5 0
      vertex 61.1584 77.5 0
      vertex 62.9783 76.9944 0
    endloop
  endfacet
  facet normal 0 0 -1
    outer loop
      vertex 62.9783 76.9944 0
      vertex 61.1584 77.5 0
      vertex 63.2056 77.4405 0
    endloop
  endfacet
  facet normal -0 0 -1
    outer loop
      vertex 63.5595 77.7944 0
      vertex 61.1584 77.5 0
      vertex 65 80 0
    endloop
  endfacet
  facet normal 0 0 -1
    outer loop
      vertex 6.84161 77.5 0
      vertex 65 80 0
      vertex 61.1584 77.5 0
    endloop
  endfacet
  facet normal 0 0 -1
    outer loop
      vertex 5.02169 76.0056 0
      vertex 6.8287 75.4184 0
      vertex 6.33156 74.4427 0
    endloop
  endfacet
  facet normal 0 0 -1
    outer loop
      vertex 4.79443 75.5595 0
      vertex 6.33156 74.4427 0
      vertex 5.55725 73.6684 0
    endloop
  endfacet
  facet normal 0 0 -1
    outer loop
      vertex 7 76.5 0
      vertex 5.1 76.5 0
      vertex 6.84161 77.5 0
    endloop
  endfacet
  facet normal 0 0 -1
    outer loop
      vertex 5.02169 76.9944 0
      vertex 6.84161 77.5 0
      vertex 5.1 76.5 0
    endloop
  endfacet
  facet normal 0 0 -1
    outer loop
      vertex 4.79443 77.4405 0
      vertex 6.84161 77.5 0
      vertex 5.02169 76.9944 0
    endloop
  endfacet
  facet normal 0 0 -1
    outer loop
      vertex 4.44046 77.7944 0
      vertex 6.84161 77.5 0
      vertex 4.79443 77.4405 0
    endloop
  endfacet
  facet normal 0 0 -1
    outer loop
      vertex 6.84161 77.5 0
      vertex 4.44046 77.7944 0
      vertex 3 80 0
    endloop
  endfacet
  facet normal 0 0 -1
    outer loop
      vertex 3 80 0
      vertex 4.44046 77.7944 0
      vertex 3.99443 78.0217 0
    endloop
  endfacet
  facet normal 0 0 -1
    outer loop
      vertex 3 80 0
      vertex 3.99443 78.0217 0
      vertex 3.5 78.1 0
    endloop
  endfacet
  facet normal 0 0 -1
    outer loop
      vertex 6.84161 77.5 0
      vertex 3 80 0
      vertex 65 80 0
    endloop
  endfacet
  facet normal 0 0 -1
    outer loop
      vertex 3.00557 78.0217 0
      vertex 3 80 0
      vertex 3.5 78.1 0
    endloop
  endfacet
  facet normal 0 0 -1
    outer loop
      vertex 2.07295 79.8532 0
      vertex 3.00557 78.0217 0
      vertex 2.55954 77.7944 0
    endloop
  endfacet
  facet normal 0 0 -1
    outer loop
      vertex 1.23664 79.427 0
      vertex 2.55954 77.7944 0
      vertex 2.20557 77.4405 0
    endloop
  endfacet
  facet normal 0 0 -1
    outer loop
      vertex 3.00557 78.0217 0
      vertex 2.07295 79.8532 0
      vertex 3 80 0
    endloop
  endfacet
  facet normal 0 0 -1
    outer loop
      vertex 0.146831 77.927 0
      vertex 2.20557 77.4405 0
      vertex 1.97831 76.9944 0
    endloop
  endfacet
  facet normal 0 0 -1
    outer loop
      vertex 0 77 0
      vertex 1.97831 76.9944 0
      vertex 1.9 76.5 0
    endloop
  endfacet
  facet normal 0 0 -1
    outer loop
      vertex 2.55954 77.7944 0
      vertex 1.23664 79.427 0
      vertex 2.07295 79.8532 0
    endloop
  endfacet
  facet normal 0 0 -1
    outer loop
      vertex 2.20557 4.44046 0
      vertex 3.67382e-016 3 0
      vertex 0 3 0
    endloop
  endfacet
  facet normal 0 0 -1
    outer loop
      vertex 3.67382e-016 3 0
      vertex 1.97831 3.00557 0
      vertex 0.146831 2.07295 0
    endloop
  endfacet
  facet normal 0 0 -1
    outer loop
      vertex 2.20557 75.5595 0
      vertex 0 77 0
      vertex 1.97831 76.0056 0
    endloop
  endfacet
  facet normal -0 0 -1
    outer loop
      vertex 1.97831 3.00557 0
      vertex 3.67382e-016 3 0
      vertex 1.9 3.5 0
    endloop
  endfacet
  facet normal 0 0 -1
    outer loop
      vertex 1.97831 76.9944 0
      vertex 0 77 0
      vertex 0.146831 77.927 0
    endloop
  endfacet
  facet normal 0 0 -1
    outer loop
      vertex 2.20557 77.4405 0
      vertex 0.572949 78.7634 0
      vertex 1.23664 79.427 0
    endloop
  endfacet
  facet normal 0 0 -1
    outer loop
      vertex 1.97831 76.0056 0
      vertex 0 77 0
      vertex 1.9 76.5 0
    endloop
  endfacet
  facet normal 0 0 -1
    outer loop
      vertex 2.20557 77.4405 0
      vertex 0.146831 77.927 0
      vertex 0.572949 78.7634 0
    endloop
  endfacet
  facet normal 0 0 -1
    outer loop
      vertex 68 77 0
      vertex 65.7944 75.5595 0
      vertex 66.0217 76.0056 0
    endloop
  endfacet
  facet normal 0 0 -1
    outer loop
      vertex 65.5 73.1584 0
      vertex 65.4405 75.2056 0
      vertex 65.7944 75.5595 0
    endloop
  endfacet
  facet normal 0 0 -1
    outer loop
      vertex 65.5 73.1584 0
      vertex 64.9944 74.9783 0
      vertex 65.4405 75.2056 0
    endloop
  endfacet
  facet normal 0 0 -1
    outer loop
      vertex 64.5 74.9 0
      vertex 65.5 73.1584 0
      vertex 64.5 73 0
    endloop
  endfacet
  facet normal 0 0 -1
    outer loop
      vertex 65.5 73.1584 0
      vertex 64.5 74.9 0
      vertex 64.9944 74.9783 0
    endloop
  endfacet
  facet normal 0 0 -1
    outer loop
      vertex 64.5 73 0
      vertex 64.0056 74.9783 0
      vertex 64.5 74.9 0
    endloop
  endfacet
  facet normal 0 0 -1
    outer loop
      vertex 63.4184 73.1713 0
      vertex 64.0056 74.9783 0
      vertex 64.5 73 0
    endloop
  endfacet
  facet normal -0 0 -1
    outer loop
      vertex 64.0056 74.9783 0
      vertex 63.4184 73.1713 0
      vertex 63.5595 75.2056 0
    endloop
  endfacet
  facet normal 0 0 -1
    outer loop
      vertex 62.4427 73.6684 0
      vertex 63.5595 75.2056 0
      vertex 63.4184 73.1713 0
    endloop
  endfacet
  facet normal -0 0 -1
    outer loop
      vertex 63.5595 75.2056 0
      vertex 62.4427 73.6684 0
      vertex 63.2056 75.5595 0
    endloop
  endfacet
  facet normal 0 0 -1
    outer loop
      vertex 61.6684 74.4427 0
      vertex 63.2056 75.5595 0
      vertex 62.4427 73.6684 0
    endloop
  endfacet
  facet normal -0 0 -1
    outer loop
      vertex 63.2056 75.5595 0
      vertex 61.6684 74.4427 0
      vertex 62.9783 76.0056 0
    endloop
  endfacet
  facet normal 0 -1 0
    outer loop
      vertex 3 0 0
      vertex 65 0 5.5
      vertex 3 0 5.5
    endloop
  endfacet
  facet normal 0 -1 -0
    outer loop
      vertex 65 0 5.5
      vertex 3 0 0
      vertex 65 0 0
    endloop
  endfacet
  facet normal 1 -0 0
    outer loop
      vertex 2.5 6.84162 5.5
      vertex 2.5 73.1584 0
      vertex 2.5 73.1584 5.5
    endloop
  endfacet
  facet normal 1 0 0
    outer loop
      vertex 2.5 73.1584 0
      vertex 2.5 6.84162 5.5
      vertex 2.5 6.84162 0
    endloop
  endfacet
  facet normal -1 0 0
    outer loop
      vertex 65.5 6.84161 0
      vertex 65.5 73.1584 5.5
      vertex 65.5 73.1584 0
    endloop
  endfacet
  facet normal -1 -0 0
    outer loop
      vertex 65.5 73.1584 5.5
      vertex 65.5 6.84161 0
      vertex 65.5 6.84161 5.5
    endloop
  endfacet
  facet normal 0 1 -0
    outer loop
      vertex 61.1584 2.5 0
      vertex 6.84162 2.5 5.5
      vertex 61.1584 2.5 5.5
    endloop
  endfacet
  facet normal 0 1 0
    outer loop
      vertex 6.84162 2.5 5.5
      vertex 61.1584 2.5 0
      vertex 6.84162 2.5 0
    endloop
  endfacet
  facet normal 0 -1 0
    outer loop
      vertex 6.84161 77.5 5.5
      vertex 16 77.5 4
      vertex 16 77.5 5.5
    endloop
  endfacet
  facet normal 0 -1 -0
    outer loop
      vertex 16 77.5 4
      vertex 6.84161 77.5 0
      vertex 21 77.5 4
    endloop
  endfacet
  facet normal 0 -1 0
    outer loop
      vertex 6.84161 77.5 0
      vertex 16 77.5 4
      vertex 6.84161 77.5 5.5
    endloop
  endfacet
  facet normal 0 -1 0
    outer loop
      vertex 21 77.5 4
      vertex 61.1584 77.5 5.5
      vertex 21 77.5 5.5
    endloop
  endfacet
  facet normal 0 -1 0
    outer loop
      vertex 61.1584 77.5 0
      vertex 21 77.5 4
      vertex 6.84161 77.5 0
    endloop
  endfacet
  facet normal 0 -1 0
    outer loop
      vertex 21 77.5 4
      vertex 61.1584 77.5 0
      vertex 61.1584 77.5 5.5
    endloop
  endfacet
  facet normal 0.987688 0.156435 0
    outer loop
      vertex 7 3.5 5.5
      vertex 6.8287 4.58156 0
      vertex 6.8287 4.58156 5.5
    endloop
  endfacet
  facet normal 0.987688 0.156435 0
    outer loop
      vertex 6.8287 4.58156 0
      vertex 7 3.5 5.5
      vertex 7 3.5 0
    endloop
  endfacet
  facet normal -0.156435 0.987688 0
    outer loop
      vertex 3.5 7 0
      vertex 2.5 6.84162 5.5
      vertex 3.5 7 5.5
    endloop
  endfacet
  facet normal -0.156435 0.987688 0
    outer loop
      vertex 2.5 6.84162 5.5
      vertex 3.5 7 0
      vertex 2.5 6.84162 0
    endloop
  endfacet
  facet normal 0.707107 0.707107 0
    outer loop
      vertex 6.33156 5.55725 5.5
      vertex 5.55725 6.33156 0
      vertex 5.55725 6.33156 5.5
    endloop
  endfacet
  facet normal 0.707107 0.707107 0
    outer loop
      vertex 5.55725 6.33156 0
      vertex 6.33156 5.55725 5.5
      vertex 6.33156 5.55725 0
    endloop
  endfacet
  facet normal 0.891007 0.45399 0
    outer loop
      vertex 6.8287 4.58156 5.5
      vertex 6.33156 5.55725 0
      vertex 6.33156 5.55725 5.5
    endloop
  endfacet
  facet normal 0.891007 0.45399 0
    outer loop
      vertex 6.33156 5.55725 0
      vertex 6.8287 4.58156 5.5
      vertex 6.8287 4.58156 0
    endloop
  endfacet
  facet normal 0.156435 0.987688 -0
    outer loop
      vertex 4.58156 6.8287 0
      vertex 3.5 7 5.5
      vertex 4.58156 6.8287 5.5
    endloop
  endfacet
  facet normal 0.156435 0.987688 0
    outer loop
      vertex 3.5 7 5.5
      vertex 4.58156 6.8287 0
      vertex 3.5 7 0
    endloop
  endfacet
  facet normal 0.45399 0.891007 -0
    outer loop
      vertex 5.55725 6.33156 0
      vertex 4.58156 6.8287 5.5
      vertex 5.55725 6.33156 5.5
    endloop
  endfacet
  facet normal 0.45399 0.891007 0
    outer loop
      vertex 4.58156 6.8287 5.5
      vertex 5.55725 6.33156 0
      vertex 4.58156 6.8287 0
    endloop
  endfacet
  facet normal 0.987688 -0.156435 0
    outer loop
      vertex 6.84162 2.5 5.5
      vertex 7 3.5 0
      vertex 7 3.5 5.5
    endloop
  endfacet
  facet normal 0.987688 -0.156435 0
    outer loop
      vertex 7 3.5 0
      vertex 6.84162 2.5 5.5
      vertex 6.84162 2.5 0
    endloop
  endfacet
  facet normal -0.156435 0.987688 0
    outer loop
      vertex 64.5 7 0
      vertex 63.4184 6.8287 5.5
      vertex 64.5 7 5.5
    endloop
  endfacet
  facet normal -0.156435 0.987688 0
    outer loop
      vertex 63.4184 6.8287 5.5
      vertex 64.5 7 0
      vertex 63.4184 6.8287 0
    endloop
  endfacet
  facet normal -0.707109 0.707105 0
    outer loop
      vertex 61.6684 5.55725 0
      vertex 62.4427 6.33156 5.5
      vertex 62.4427 6.33156 0
    endloop
  endfacet
  facet normal -0.707109 0.707105 0
    outer loop
      vertex 62.4427 6.33156 5.5
      vertex 61.6684 5.55725 0
      vertex 61.6684 5.55725 5.5
    endloop
  endfacet
  facet normal -0.891006 0.453991 0
    outer loop
      vertex 61.1713 4.58156 0
      vertex 61.6684 5.55725 5.5
      vertex 61.6684 5.55725 0
    endloop
  endfacet
  facet normal -0.891006 0.453991 0
    outer loop
      vertex 61.6684 5.55725 5.5
      vertex 61.1713 4.58156 0
      vertex 61.1713 4.58156 5.5
    endloop
  endfacet
  facet normal -0.453989 0.891007 0
    outer loop
      vertex 63.4184 6.8287 0
      vertex 62.4427 6.33156 5.5
      vertex 63.4184 6.8287 5.5
    endloop
  endfacet
  facet normal -0.453989 0.891007 0
    outer loop
      vertex 62.4427 6.33156 5.5
      vertex 63.4184 6.8287 0
      vertex 62.4427 6.33156 0
    endloop
  endfacet
  facet normal 0.156435 0.987688 -0
    outer loop
      vertex 65.5 6.84161 0
      vertex 64.5 7 5.5
      vertex 65.5 6.84161 5.5
    endloop
  endfacet
  facet normal 0.156435 0.987688 0
    outer loop
      vertex 64.5 7 5.5
      vertex 65.5 6.84161 0
      vertex 64.5 7 0
    endloop
  endfacet
  facet normal -0.987688 0.156435 0
    outer loop
      vertex 61 3.5 0
      vertex 61.1713 4.58156 5.5
      vertex 61.1713 4.58156 0
    endloop
  endfacet
  facet normal -0.987688 0.156435 0
    outer loop
      vertex 61.1713 4.58156 5.5
      vertex 61 3.5 0
      vertex 61 3.5 5.5
    endloop
  endfacet
  facet normal -0.987689 -0.156433 0
    outer loop
      vertex 61.1584 2.5 0
      vertex 61 3.5 5.5
      vertex 61 3.5 0
    endloop
  endfacet
  facet normal -0.987689 -0.156433 0
    outer loop
      vertex 61 3.5 5.5
      vertex 61.1584 2.5 0
      vertex 61.1584 2.5 5.5
    endloop
  endfacet
  facet normal 0.156436 -0.987688 0
    outer loop
      vertex 64.5 73 0
      vertex 65.5 73.1584 5.5
      vertex 64.5 73 5.5
    endloop
  endfacet
  facet normal 0.156436 -0.987688 0
    outer loop
      vertex 65.5 73.1584 5.5
      vertex 64.5 73 0
      vertex 65.5 73.1584 0
    endloop
  endfacet
  facet normal -0.45399 -0.891007 0
    outer loop
      vertex 62.4427 73.6684 0
      vertex 63.4184 73.1713 5.5
      vertex 62.4427 73.6684 5.5
    endloop
  endfacet
  facet normal -0.45399 -0.891007 -0
    outer loop
      vertex 63.4184 73.1713 5.5
      vertex 62.4427 73.6684 0
      vertex 63.4184 73.1713 0
    endloop
  endfacet
  facet normal -0.891007 -0.45399 0
    outer loop
      vertex 61.6684 74.4427 0
      vertex 61.1713 75.4184 5.5
      vertex 61.1713 75.4184 0
    endloop
  endfacet
  facet normal -0.891007 -0.45399 0
    outer loop
      vertex 61.1713 75.4184 5.5
      vertex 61.6684 74.4427 0
      vertex 61.6684 74.4427 5.5
    endloop
  endfacet
  facet normal -0.987689 0.156433 0
    outer loop
      vertex 61 76.5 0
      vertex 61.1584 77.5 5.5
      vertex 61.1584 77.5 0
    endloop
  endfacet
  facet normal -0.987689 0.156433 0
    outer loop
      vertex 61.1584 77.5 5.5
      vertex 61 76.5 0
      vertex 61 76.5 5.5
    endloop
  endfacet
  facet normal -0.156435 -0.987688 0
    outer loop
      vertex 63.4184 73.1713 0
      vertex 64.5 73 5.5
      vertex 63.4184 73.1713 5.5
    endloop
  endfacet
  facet normal -0.156435 -0.987688 -0
    outer loop
      vertex 64.5 73 5.5
      vertex 63.4184 73.1713 0
      vertex 64.5 73 0
    endloop
  endfacet
  facet normal -0.707107 -0.707107 0
    outer loop
      vertex 62.4427 73.6684 0
      vertex 61.6684 74.4427 5.5
      vertex 61.6684 74.4427 0
    endloop
  endfacet
  facet normal -0.707107 -0.707107 0
    outer loop
      vertex 61.6684 74.4427 5.5
      vertex 62.4427 73.6684 0
      vertex 62.4427 73.6684 5.5
    endloop
  endfacet
  facet normal -0.987688 -0.156435 0
    outer loop
      vertex 61.1713 75.4184 0
      vertex 61 76.5 5.5
      vertex 61 76.5 0
    endloop
  endfacet
  facet normal -0.987688 -0.156435 0
    outer loop
      vertex 61 76.5 5.5
      vertex 61.1713 75.4184 0
      vertex 61.1713 75.4184 5.5
    endloop
  endfacet
  facet normal 0.987688 0.156435 0
    outer loop
      vertex 7 76.5 5.5
      vertex 6.84161 77.5 0
      vertex 6.84161 77.5 5.5
    endloop
  endfacet
  facet normal 0.987688 0.156435 0
    outer loop
      vertex 6.84161 77.5 0
      vertex 7 76.5 5.5
      vertex 7 76.5 0
    endloop
  endfacet
  facet normal 0.156435 -0.987688 0
    outer loop
      vertex 3.5 73 0
      vertex 4.58156 73.1713 5.5
      vertex 3.5 73 5.5
    endloop
  endfacet
  facet normal 0.156435 -0.987688 0
    outer loop
      vertex 4.58156 73.1713 5.5
      vertex 3.5 73 0
      vertex 4.58156 73.1713 0
    endloop
  endfacet
  facet normal 0.453991 -0.891006 0
    outer loop
      vertex 4.58156 73.1713 0
      vertex 5.55725 73.6684 5.5
      vertex 4.58156 73.1713 5.5
    endloop
  endfacet
  facet normal 0.453991 -0.891006 0
    outer loop
      vertex 5.55725 73.6684 5.5
      vertex 4.58156 73.1713 0
      vertex 5.55725 73.6684 0
    endloop
  endfacet
  facet normal 0.987688 -0.156435 0
    outer loop
      vertex 6.8287 75.4184 5.5
      vertex 7 76.5 0
      vertex 7 76.5 5.5
    endloop
  endfacet
  facet normal 0.987688 -0.156435 0
    outer loop
      vertex 7 76.5 0
      vertex 6.8287 75.4184 5.5
      vertex 6.8287 75.4184 0
    endloop
  endfacet
  facet normal 0.707105 -0.707109 0
    outer loop
      vertex 5.55725 73.6684 0
      vertex 6.33156 74.4427 5.5
      vertex 5.55725 73.6684 5.5
    endloop
  endfacet
  facet normal 0.707105 -0.707109 0
    outer loop
      vertex 6.33156 74.4427 5.5
      vertex 5.55725 73.6684 0
      vertex 6.33156 74.4427 0
    endloop
  endfacet
  facet normal 0.891007 -0.453989 0
    outer loop
      vertex 6.33156 74.4427 5.5
      vertex 6.8287 75.4184 0
      vertex 6.8287 75.4184 5.5
    endloop
  endfacet
  facet normal 0.891007 -0.453989 0
    outer loop
      vertex 6.8287 75.4184 0
      vertex 6.33156 74.4427 5.5
      vertex 6.33156 74.4427 0
    endloop
  endfacet
  facet normal -0.156436 -0.987688 0
    outer loop
      vertex 2.5 73.1584 0
      vertex 3.5 73 5.5
      vertex 2.5 73.1584 5.5
    endloop
  endfacet
  facet normal -0.156436 -0.987688 -0
    outer loop
      vertex 3.5 73 5.5
      vertex 2.5 73.1584 0
      vertex 3.5 73 0
    endloop
  endfacet
  facet normal -0.987688 -0.156434 0
    outer loop
      vertex 5.1 3.5 0
      vertex 5.02169 3.99443 5.5
      vertex 5.02169 3.99443 0
    endloop
  endfacet
  facet normal -0.987688 -0.156434 0
    outer loop
      vertex 5.02169 3.99443 5.5
      vertex 5.1 3.5 0
      vertex 5.1 3.5 5.5
    endloop
  endfacet
  facet normal 0.987689 0.156433 0
    outer loop
      vertex 1.97831 3.00557 5.5
      vertex 1.9 3.5 0
      vertex 1.9 3.5 5.5
    endloop
  endfacet
  facet normal 0.987689 0.156433 0
    outer loop
      vertex 1.9 3.5 0
      vertex 1.97831 3.00557 5.5
      vertex 1.97831 3.00557 0
    endloop
  endfacet
  facet normal 0.156433 -0.987689 0
    outer loop
      vertex 3.00557 5.02169 0
      vertex 3.5 5.1 5.5
      vertex 3.00557 5.02169 5.5
    endloop
  endfacet
  facet normal 0.156433 -0.987689 0
    outer loop
      vertex 3.5 5.1 5.5
      vertex 3.00557 5.02169 0
      vertex 3.5 5.1 0
    endloop
  endfacet
  facet normal -0.156433 0.987689 0
    outer loop
      vertex 3.99443 1.97831 0
      vertex 3.5 1.9 5.5
      vertex 3.99443 1.97831 5.5
    endloop
  endfacet
  facet normal -0.156433 0.987689 0
    outer loop
      vertex 3.5 1.9 5.5
      vertex 3.99443 1.97831 0
      vertex 3.5 1.9 0
    endloop
  endfacet
  facet normal -0.707107 -0.707107 0
    outer loop
      vertex 4.79443 4.44046 0
      vertex 4.44046 4.79443 5.5
      vertex 4.44046 4.79443 0
    endloop
  endfacet
  facet normal -0.707107 -0.707107 0
    outer loop
      vertex 4.44046 4.79443 5.5
      vertex 4.79443 4.44046 0
      vertex 4.79443 4.44046 5.5
    endloop
  endfacet
  facet normal -0.891007 -0.45399 0
    outer loop
      vertex 5.02169 3.99443 0
      vertex 4.79443 4.44046 5.5
      vertex 4.79443 4.44046 0
    endloop
  endfacet
  facet normal -0.891007 -0.45399 0
    outer loop
      vertex 4.79443 4.44046 5.5
      vertex 5.02169 3.99443 0
      vertex 5.02169 3.99443 5.5
    endloop
  endfacet
  facet normal -0.45399 -0.891007 0
    outer loop
      vertex 3.99443 5.02169 0
      vertex 4.44046 4.79443 5.5
      vertex 3.99443 5.02169 5.5
    endloop
  endfacet
  facet normal -0.45399 -0.891007 -0
    outer loop
      vertex 4.44046 4.79443 5.5
      vertex 3.99443 5.02169 0
      vertex 4.44046 4.79443 0
    endloop
  endfacet
  facet normal 0.707107 -0.707107 0
    outer loop
      vertex 2.20557 4.44046 5.5
      vertex 2.55954 4.79443 0
      vertex 2.55954 4.79443 5.5
    endloop
  endfacet
  facet normal 0.707107 -0.707107 0
    outer loop
      vertex 2.55954 4.79443 0
      vertex 2.20557 4.44046 5.5
      vertex 2.20557 4.44046 0
    endloop
  endfacet
  facet normal 0.891007 -0.45399 0
    outer loop
      vertex 1.97831 3.99443 5.5
      vertex 2.20557 4.44046 0
      vertex 2.20557 4.44046 5.5
    endloop
  endfacet
  facet normal 0.891007 -0.45399 0
    outer loop
      vertex 2.20557 4.44046 0
      vertex 1.97831 3.99443 5.5
      vertex 1.97831 3.99443 0
    endloop
  endfacet
  facet normal 0.45399 -0.891007 0
    outer loop
      vertex 2.55954 4.79443 0
      vertex 3.00557 5.02169 5.5
      vertex 2.55954 4.79443 5.5
    endloop
  endfacet
  facet normal 0.45399 -0.891007 0
    outer loop
      vertex 3.00557 5.02169 5.5
      vertex 2.55954 4.79443 0
      vertex 3.00557 5.02169 0
    endloop
  endfacet
  facet normal -0.45399 0.891007 0
    outer loop
      vertex 4.44046 2.20557 0
      vertex 3.99443 1.97831 5.5
      vertex 4.44046 2.20557 5.5
    endloop
  endfacet
  facet normal -0.45399 0.891007 0
    outer loop
      vertex 3.99443 1.97831 5.5
      vertex 4.44046 2.20557 0
      vertex 3.99443 1.97831 0
    endloop
  endfacet
  facet normal -0.891007 0.45399 0
    outer loop
      vertex 4.79443 2.55954 0
      vertex 5.02169 3.00557 5.5
      vertex 5.02169 3.00557 0
    endloop
  endfacet
  facet normal -0.891007 0.45399 0
    outer loop
      vertex 5.02169 3.00557 5.5
      vertex 4.79443 2.55954 0
      vertex 4.79443 2.55954 5.5
    endloop
  endfacet
  facet normal 0.45399 0.891007 -0
    outer loop
      vertex 3.00557 1.97831 0
      vertex 2.55954 2.20557 5.5
      vertex 3.00557 1.97831 5.5
    endloop
  endfacet
  facet normal 0.45399 0.891007 0
    outer loop
      vertex 2.55954 2.20557 5.5
      vertex 3.00557 1.97831 0
      vertex 2.55954 2.20557 0
    endloop
  endfacet
  facet normal 0.891007 0.45399 0
    outer loop
      vertex 2.20557 2.55954 5.5
      vertex 1.97831 3.00557 0
      vertex 1.97831 3.00557 5.5
    endloop
  endfacet
  facet normal 0.891007 0.45399 0
    outer loop
      vertex 1.97831 3.00557 0
      vertex 2.20557 2.55954 5.5
      vertex 2.20557 2.55954 0
    endloop
  endfacet
  facet normal -0.156434 -0.987688 0
    outer loop
      vertex 3.5 5.1 0
      vertex 3.99443 5.02169 5.5
      vertex 3.5 5.1 5.5
    endloop
  endfacet
  facet normal -0.156434 -0.987688 -0
    outer loop
      vertex 3.99443 5.02169 5.5
      vertex 3.5 5.1 0
      vertex 3.99443 5.02169 0
    endloop
  endfacet
  facet normal 0.987688 -0.156434 0
    outer loop
      vertex 1.9 3.5 5.5
      vertex 1.97831 3.99443 0
      vertex 1.97831 3.99443 5.5
    endloop
  endfacet
  facet normal 0.987688 -0.156434 0
    outer loop
      vertex 1.97831 3.99443 0
      vertex 1.9 3.5 5.5
      vertex 1.9 3.5 0
    endloop
  endfacet
  facet normal -0.987689 0.156433 0
    outer loop
      vertex 5.02169 3.00557 0
      vertex 5.1 3.5 5.5
      vertex 5.1 3.5 0
    endloop
  endfacet
  facet normal -0.987689 0.156433 0
    outer loop
      vertex 5.1 3.5 5.5
      vertex 5.02169 3.00557 0
      vertex 5.02169 3.00557 5.5
    endloop
  endfacet
  facet normal -0.707107 0.707107 0
    outer loop
      vertex 4.44046 2.20557 0
      vertex 4.79443 2.55954 5.5
      vertex 4.79443 2.55954 0
    endloop
  endfacet
  facet normal -0.707107 0.707107 0
    outer loop
      vertex 4.79443 2.55954 5.5
      vertex 4.44046 2.20557 0
      vertex 4.44046 2.20557 5.5
    endloop
  endfacet
  facet normal 0.156434 0.987688 -0
    outer loop
      vertex 3.5 1.9 0
      vertex 3.00557 1.97831 5.5
      vertex 3.5 1.9 5.5
    endloop
  endfacet
  facet normal 0.156434 0.987688 0
    outer loop
      vertex 3.00557 1.97831 5.5
      vertex 3.5 1.9 0
      vertex 3.00557 1.97831 0
    endloop
  endfacet
  facet normal 0.707107 0.707107 0
    outer loop
      vertex 2.55954 2.20557 5.5
      vertex 2.20557 2.55954 0
      vertex 2.20557 2.55954 5.5
    endloop
  endfacet
  facet normal 0.707107 0.707107 0
    outer loop
      vertex 2.20557 2.55954 0
      vertex 2.55954 2.20557 5.5
      vertex 2.55954 2.20557 0
    endloop
  endfacet
  facet normal -0.987689 -0.156432 0
    outer loop
      vertex 66.1 3.5 0
      vertex 66.0217 3.99443 5.5
      vertex 66.0217 3.99443 0
    endloop
  endfacet
  facet normal -0.987689 -0.156432 0
    outer loop
      vertex 66.0217 3.99443 5.5
      vertex 66.1 3.5 0
      vertex 66.1 3.5 5.5
    endloop
  endfacet
  facet normal 0.156432 -0.987689 0
    outer loop
      vertex 64.0056 5.02169 0
      vertex 64.5 5.1 5.5
      vertex 64.0056 5.02169 5.5
    endloop
  endfacet
  facet normal 0.156432 -0.987689 0
    outer loop
      vertex 64.5 5.1 5.5
      vertex 64.0056 5.02169 0
      vertex 64.5 5.1 0
    endloop
  endfacet
  facet normal -0.156432 0.987689 0
    outer loop
      vertex 64.9944 1.97831 0
      vertex 64.5 1.9 5.5
      vertex 64.9944 1.97831 5.5
    endloop
  endfacet
  facet normal -0.156432 0.987689 0
    outer loop
      vertex 64.5 1.9 5.5
      vertex 64.9944 1.97831 0
      vertex 64.5 1.9 0
    endloop
  endfacet
  facet normal -0.707112 -0.707102 0
    outer loop
      vertex 65.7944 4.44046 0
      vertex 65.4405 4.79443 5.5
      vertex 65.4405 4.79443 0
    endloop
  endfacet
  facet normal -0.707112 -0.707102 0
    outer loop
      vertex 65.4405 4.79443 5.5
      vertex 65.7944 4.44046 0
      vertex 65.7944 4.44046 5.5
    endloop
  endfacet
  facet normal -0.891006 -0.453992 0
    outer loop
      vertex 66.0217 3.99443 0
      vertex 65.7944 4.44046 5.5
      vertex 65.7944 4.44046 0
    endloop
  endfacet
  facet normal -0.891006 -0.453992 0
    outer loop
      vertex 65.7944 4.44046 5.5
      vertex 66.0217 3.99443 0
      vertex 66.0217 3.99443 5.5
    endloop
  endfacet
  facet normal -0.45399 -0.891007 0
    outer loop
      vertex 64.9944 5.02169 0
      vertex 65.4405 4.79443 5.5
      vertex 64.9944 5.02169 5.5
    endloop
  endfacet
  facet normal -0.45399 -0.891007 -0
    outer loop
      vertex 65.4405 4.79443 5.5
      vertex 64.9944 5.02169 0
      vertex 65.4405 4.79443 0
    endloop
  endfacet
  facet normal 0.707108 -0.707106 0
    outer loop
      vertex 63.2056 4.44046 5.5
      vertex 63.5595 4.79443 0
      vertex 63.5595 4.79443 5.5
    endloop
  endfacet
  facet normal 0.707108 -0.707106 0
    outer loop
      vertex 63.5595 4.79443 0
      vertex 63.2056 4.44046 5.5
      vertex 63.2056 4.44046 0
    endloop
  endfacet
  facet normal 0.891006 -0.453992 0
    outer loop
      vertex 62.9783 3.99443 5.5
      vertex 63.2056 4.44046 0
      vertex 63.2056 4.44046 5.5
    endloop
  endfacet
  facet normal 0.891006 -0.453992 0
    outer loop
      vertex 63.2056 4.44046 0
      vertex 62.9783 3.99443 5.5
      vertex 62.9783 3.99443 0
    endloop
  endfacet
  facet normal 0.453994 -0.891005 0
    outer loop
      vertex 63.5595 4.79443 0
      vertex 64.0056 5.02169 5.5
      vertex 63.5595 4.79443 5.5
    endloop
  endfacet
  facet normal 0.453994 -0.891005 0
    outer loop
      vertex 64.0056 5.02169 5.5
      vertex 63.5595 4.79443 0
      vertex 64.0056 5.02169 0
    endloop
  endfacet
  facet normal -0.45399 0.891007 0
    outer loop
      vertex 65.4405 2.20557 0
      vertex 64.9944 1.97831 5.5
      vertex 65.4405 2.20557 5.5
    endloop
  endfacet
  facet normal -0.45399 0.891007 0
    outer loop
      vertex 64.9944 1.97831 5.5
      vertex 65.4405 2.20557 0
      vertex 64.9944 1.97831 0
    endloop
  endfacet
  facet normal -0.891006 0.453992 0
    outer loop
      vertex 65.7944 2.55954 0
      vertex 66.0217 3.00557 5.5
      vertex 66.0217 3.00557 0
    endloop
  endfacet
  facet normal -0.891006 0.453992 0
    outer loop
      vertex 66.0217 3.00557 5.5
      vertex 65.7944 2.55954 0
      vertex 65.7944 2.55954 5.5
    endloop
  endfacet
  facet normal 0.453994 0.891005 -0
    outer loop
      vertex 64.0056 1.97831 0
      vertex 63.5595 2.20557 5.5
      vertex 64.0056 1.97831 5.5
    endloop
  endfacet
  facet normal 0.453994 0.891005 0
    outer loop
      vertex 63.5595 2.20557 5.5
      vertex 64.0056 1.97831 0
      vertex 63.5595 2.20557 0
    endloop
  endfacet
  facet normal 0.891006 0.453992 0
    outer loop
      vertex 63.2056 2.55954 5.5
      vertex 62.9783 3.00557 0
      vertex 62.9783 3.00557 5.5
    endloop
  endfacet
  facet normal 0.891006 0.453992 0
    outer loop
      vertex 62.9783 3.00557 0
      vertex 63.2056 2.55954 5.5
      vertex 63.2056 2.55954 0
    endloop
  endfacet
  facet normal -0.156432 -0.987689 0
    outer loop
      vertex 64.5 5.1 0
      vertex 64.9944 5.02169 5.5
      vertex 64.5 5.1 5.5
    endloop
  endfacet
  facet normal -0.156432 -0.987689 -0
    outer loop
      vertex 64.9944 5.02169 5.5
      vertex 64.5 5.1 0
      vertex 64.9944 5.02169 0
    endloop
  endfacet
  facet normal 0.987689 -0.156432 0
    outer loop
      vertex 62.9 3.5 5.5
      vertex 62.9783 3.99443 0
      vertex 62.9783 3.99443 5.5
    endloop
  endfacet
  facet normal 0.987689 -0.156432 0
    outer loop
      vertex 62.9783 3.99443 0
      vertex 62.9 3.5 5.5
      vertex 62.9 3.5 0
    endloop
  endfacet
  facet normal -0.707112 0.707102 0
    outer loop
      vertex 65.4405 2.20557 0
      vertex 65.7944 2.55954 5.5
      vertex 65.7944 2.55954 0
    endloop
  endfacet
  facet normal -0.707112 0.707102 0
    outer loop
      vertex 65.7944 2.55954 5.5
      vertex 65.4405 2.20557 0
      vertex 65.4405 2.20557 5.5
    endloop
  endfacet
  facet normal -0.987689 0.156431 0
    outer loop
      vertex 66.0217 3.00557 0
      vertex 66.1 3.5 5.5
      vertex 66.1 3.5 0
    endloop
  endfacet
  facet normal -0.987689 0.156431 0
    outer loop
      vertex 66.1 3.5 5.5
      vertex 66.0217 3.00557 0
      vertex 66.0217 3.00557 5.5
    endloop
  endfacet
  facet normal 0.156432 0.987689 -0
    outer loop
      vertex 64.5 1.9 0
      vertex 64.0056 1.97831 5.5
      vertex 64.5 1.9 5.5
    endloop
  endfacet
  facet normal 0.156432 0.987689 0
    outer loop
      vertex 64.0056 1.97831 5.5
      vertex 64.5 1.9 0
      vertex 64.0056 1.97831 0
    endloop
  endfacet
  facet normal 0.707108 0.707106 0
    outer loop
      vertex 63.5595 2.20557 5.5
      vertex 63.2056 2.55954 0
      vertex 63.2056 2.55954 5.5
    endloop
  endfacet
  facet normal 0.707108 0.707106 0
    outer loop
      vertex 63.2056 2.55954 0
      vertex 63.5595 2.20557 5.5
      vertex 63.5595 2.20557 0
    endloop
  endfacet
  facet normal 0.987689 0.156431 0
    outer loop
      vertex 62.9783 3.00557 5.5
      vertex 62.9 3.5 0
      vertex 62.9 3.5 5.5
    endloop
  endfacet
  facet normal 0.987689 0.156431 0
    outer loop
      vertex 62.9 3.5 0
      vertex 62.9783 3.00557 5.5
      vertex 62.9783 3.00557 0
    endloop
  endfacet
  facet normal -0.987689 -0.156432 0
    outer loop
      vertex 5.1 76.5 0
      vertex 5.02169 76.9944 5.5
      vertex 5.02169 76.9944 0
    endloop
  endfacet
  facet normal -0.987689 -0.156432 0
    outer loop
      vertex 5.02169 76.9944 5.5
      vertex 5.1 76.5 0
      vertex 5.1 76.5 5.5
    endloop
  endfacet
  facet normal 0.987689 0.156432 0
    outer loop
      vertex 1.97831 76.0056 5.5
      vertex 1.9 76.5 0
      vertex 1.9 76.5 5.5
    endloop
  endfacet
  facet normal 0.987689 0.156432 0
    outer loop
      vertex 1.9 76.5 0
      vertex 1.97831 76.0056 5.5
      vertex 1.97831 76.0056 0
    endloop
  endfacet
  facet normal 0.156431 -0.987689 0
    outer loop
      vertex 3.00557 78.0217 0
      vertex 3.5 78.1 5.5
      vertex 3.00557 78.0217 5.5
    endloop
  endfacet
  facet normal 0.156431 -0.987689 0
    outer loop
      vertex 3.5 78.1 5.5
      vertex 3.00557 78.0217 0
      vertex 3.5 78.1 0
    endloop
  endfacet
  facet normal -0.156431 0.987689 0
    outer loop
      vertex 3.99443 74.9783 0
      vertex 3.5 74.9 5.5
      vertex 3.99443 74.9783 5.5
    endloop
  endfacet
  facet normal -0.156431 0.987689 0
    outer loop
      vertex 3.5 74.9 5.5
      vertex 3.99443 74.9783 0
      vertex 3.5 74.9 0
    endloop
  endfacet
  facet normal -0.707102 -0.707112 0
    outer loop
      vertex 4.44046 77.7944 0
      vertex 4.79443 77.4405 5.5
      vertex 4.44046 77.7944 5.5
    endloop
  endfacet
  facet normal -0.707102 -0.707112 -0
    outer loop
      vertex 4.79443 77.4405 5.5
      vertex 4.44046 77.7944 0
      vertex 4.79443 77.4405 0
    endloop
  endfacet
  facet normal -0.891007 -0.45399 0
    outer loop
      vertex 5.02169 76.9944 0
      vertex 4.79443 77.4405 5.5
      vertex 4.79443 77.4405 0
    endloop
  endfacet
  facet normal -0.891007 -0.45399 0
    outer loop
      vertex 4.79443 77.4405 5.5
      vertex 5.02169 76.9944 0
      vertex 5.02169 76.9944 5.5
    endloop
  endfacet
  facet normal -0.453992 -0.891006 0
    outer loop
      vertex 3.99443 78.0217 0
      vertex 4.44046 77.7944 5.5
      vertex 3.99443 78.0217 5.5
    endloop
  endfacet
  facet normal -0.453992 -0.891006 -0
    outer loop
      vertex 4.44046 77.7944 5.5
      vertex 3.99443 78.0217 0
      vertex 4.44046 77.7944 0
    endloop
  endfacet
  facet normal 0.707102 -0.707112 0
    outer loop
      vertex 2.20557 77.4405 0
      vertex 2.55954 77.7944 5.5
      vertex 2.20557 77.4405 5.5
    endloop
  endfacet
  facet normal 0.707102 -0.707112 0
    outer loop
      vertex 2.55954 77.7944 5.5
      vertex 2.20557 77.4405 0
      vertex 2.55954 77.7944 0
    endloop
  endfacet
  facet normal 0.891007 -0.45399 0
    outer loop
      vertex 1.97831 76.9944 5.5
      vertex 2.20557 77.4405 0
      vertex 2.20557 77.4405 5.5
    endloop
  endfacet
  facet normal 0.891007 -0.45399 0
    outer loop
      vertex 2.20557 77.4405 0
      vertex 1.97831 76.9944 5.5
      vertex 1.97831 76.9944 0
    endloop
  endfacet
  facet normal 0.453992 -0.891006 0
    outer loop
      vertex 2.55954 77.7944 0
      vertex 3.00557 78.0217 5.5
      vertex 2.55954 77.7944 5.5
    endloop
  endfacet
  facet normal 0.453992 -0.891006 0
    outer loop
      vertex 3.00557 78.0217 5.5
      vertex 2.55954 77.7944 0
      vertex 3.00557 78.0217 0
    endloop
  endfacet
  facet normal -0.453992 0.891006 0
    outer loop
      vertex 4.44046 75.2056 0
      vertex 3.99443 74.9783 5.5
      vertex 4.44046 75.2056 5.5
    endloop
  endfacet
  facet normal -0.453992 0.891006 0
    outer loop
      vertex 3.99443 74.9783 5.5
      vertex 4.44046 75.2056 0
      vertex 3.99443 74.9783 0
    endloop
  endfacet
  facet normal -0.891007 0.45399 0
    outer loop
      vertex 4.79443 75.5595 0
      vertex 5.02169 76.0056 5.5
      vertex 5.02169 76.0056 0
    endloop
  endfacet
  facet normal -0.891007 0.45399 0
    outer loop
      vertex 5.02169 76.0056 5.5
      vertex 4.79443 75.5595 0
      vertex 4.79443 75.5595 5.5
    endloop
  endfacet
  facet normal 0.453992 0.891006 -0
    outer loop
      vertex 3.00557 74.9783 0
      vertex 2.55954 75.2056 5.5
      vertex 3.00557 74.9783 5.5
    endloop
  endfacet
  facet normal 0.453992 0.891006 0
    outer loop
      vertex 2.55954 75.2056 5.5
      vertex 3.00557 74.9783 0
      vertex 2.55954 75.2056 0
    endloop
  endfacet
  facet normal 0.891007 0.45399 0
    outer loop
      vertex 2.20557 75.5595 5.5
      vertex 1.97831 76.0056 0
      vertex 1.97831 76.0056 5.5
    endloop
  endfacet
  facet normal 0.891007 0.45399 0
    outer loop
      vertex 1.97831 76.0056 0
      vertex 2.20557 75.5595 5.5
      vertex 2.20557 75.5595 0
    endloop
  endfacet
  facet normal -0.156432 -0.987689 0
    outer loop
      vertex 3.5 78.1 0
      vertex 3.99443 78.0217 5.5
      vertex 3.5 78.1 5.5
    endloop
  endfacet
  facet normal -0.156432 -0.987689 -0
    outer loop
      vertex 3.99443 78.0217 5.5
      vertex 3.5 78.1 0
      vertex 3.99443 78.0217 0
    endloop
  endfacet
  facet normal 0.987689 -0.156432 0
    outer loop
      vertex 1.9 76.5 5.5
      vertex 1.97831 76.9944 0
      vertex 1.97831 76.9944 5.5
    endloop
  endfacet
  facet normal 0.987689 -0.156432 0
    outer loop
      vertex 1.97831 76.9944 0
      vertex 1.9 76.5 5.5
      vertex 1.9 76.5 0
    endloop
  endfacet
  facet normal -0.987689 0.156432 0
    outer loop
      vertex 5.02169 76.0056 0
      vertex 5.1 76.5 5.5
      vertex 5.1 76.5 0
    endloop
  endfacet
  facet normal -0.987689 0.156432 0
    outer loop
      vertex 5.1 76.5 5.5
      vertex 5.02169 76.0056 0
      vertex 5.02169 76.0056 5.5
    endloop
  endfacet
  facet normal -0.707102 0.707112 0
    outer loop
      vertex 4.79443 75.5595 0
      vertex 4.44046 75.2056 5.5
      vertex 4.79443 75.5595 5.5
    endloop
  endfacet
  facet normal -0.707102 0.707112 0
    outer loop
      vertex 4.44046 75.2056 5.5
      vertex 4.79443 75.5595 0
      vertex 4.44046 75.2056 0
    endloop
  endfacet
  facet normal 0.156432 0.987689 -0
    outer loop
      vertex 3.5 74.9 0
      vertex 3.00557 74.9783 5.5
      vertex 3.5 74.9 5.5
    endloop
  endfacet
  facet normal 0.156432 0.987689 0
    outer loop
      vertex 3.00557 74.9783 5.5
      vertex 3.5 74.9 0
      vertex 3.00557 74.9783 0
    endloop
  endfacet
  facet normal 0.707102 0.707112 -0
    outer loop
      vertex 2.55954 75.2056 0
      vertex 2.20557 75.5595 5.5
      vertex 2.55954 75.2056 5.5
    endloop
  endfacet
  facet normal 0.707102 0.707112 0
    outer loop
      vertex 2.20557 75.5595 5.5
      vertex 2.55954 75.2056 0
      vertex 2.20557 75.5595 0
    endloop
  endfacet
  facet normal -0.987689 -0.156431 0
    outer loop
      vertex 66.1 76.5 0
      vertex 66.0217 76.9944 5.5
      vertex 66.0217 76.9944 0
    endloop
  endfacet
  facet normal -0.987689 -0.156431 0
    outer loop
      vertex 66.0217 76.9944 5.5
      vertex 66.1 76.5 0
      vertex 66.1 76.5 5.5
    endloop
  endfacet
  facet normal 0.987689 0.156431 0
    outer loop
      vertex 62.9783 76.0056 5.5
      vertex 62.9 76.5 0
      vertex 62.9 76.5 5.5
    endloop
  endfacet
  facet normal 0.987689 0.156431 0
    outer loop
      vertex 62.9 76.5 0
      vertex 62.9783 76.0056 5.5
      vertex 62.9783 76.0056 0
    endloop
  endfacet
  facet normal 0.156431 -0.987689 0
    outer loop
      vertex 64.0056 78.0217 0
      vertex 64.5 78.1 5.5
      vertex 64.0056 78.0217 5.5
    endloop
  endfacet
  facet normal 0.156431 -0.987689 0
    outer loop
      vertex 64.5 78.1 5.5
      vertex 64.0056 78.0217 0
      vertex 64.5 78.1 0
    endloop
  endfacet
  facet normal -0.707107 -0.707107 0
    outer loop
      vertex 65.7944 77.4405 0
      vertex 65.4405 77.7944 5.5
      vertex 65.4405 77.7944 0
    endloop
  endfacet
  facet normal -0.707107 -0.707107 0
    outer loop
      vertex 65.4405 77.7944 5.5
      vertex 65.7944 77.4405 0
      vertex 65.7944 77.4405 5.5
    endloop
  endfacet
  facet normal -0.891006 -0.453992 0
    outer loop
      vertex 66.0217 76.9944 0
      vertex 65.7944 77.4405 5.5
      vertex 65.7944 77.4405 0
    endloop
  endfacet
  facet normal -0.891006 -0.453992 0
    outer loop
      vertex 65.7944 77.4405 5.5
      vertex 66.0217 76.9944 0
      vertex 66.0217 76.9944 5.5
    endloop
  endfacet
  facet normal -0.453992 -0.891006 0
    outer loop
      vertex 64.9944 78.0217 0
      vertex 65.4405 77.7944 5.5
      vertex 64.9944 78.0217 5.5
    endloop
  endfacet
  facet normal -0.453992 -0.891006 -0
    outer loop
      vertex 65.4405 77.7944 5.5
      vertex 64.9944 78.0217 0
      vertex 65.4405 77.7944 0
    endloop
  endfacet
  facet normal 0.707103 -0.707111 0
    outer loop
      vertex 63.2056 77.4405 0
      vertex 63.5595 77.7944 5.5
      vertex 63.2056 77.4405 5.5
    endloop
  endfacet
  facet normal 0.707103 -0.707111 0
    outer loop
      vertex 63.5595 77.7944 5.5
      vertex 63.2056 77.4405 0
      vertex 63.5595 77.7944 0
    endloop
  endfacet
  facet normal 0.891006 -0.453992 0
    outer loop
      vertex 62.9783 76.9944 5.5
      vertex 63.2056 77.4405 0
      vertex 63.2056 77.4405 5.5
    endloop
  endfacet
  facet normal 0.891006 -0.453992 0
    outer loop
      vertex 63.2056 77.4405 0
      vertex 62.9783 76.9944 5.5
      vertex 62.9783 76.9944 0
    endloop
  endfacet
  facet normal 0.453995 -0.891004 0
    outer loop
      vertex 63.5595 77.7944 0
      vertex 64.0056 78.0217 5.5
      vertex 63.5595 77.7944 5.5
    endloop
  endfacet
  facet normal 0.453995 -0.891004 0
    outer loop
      vertex 64.0056 78.0217 5.5
      vertex 63.5595 77.7944 0
      vertex 64.0056 78.0217 0
    endloop
  endfacet
  facet normal -0.453992 0.891006 0
    outer loop
      vertex 65.4405 75.2056 0
      vertex 64.9944 74.9783 5.5
      vertex 65.4405 75.2056 5.5
    endloop
  endfacet
  facet normal -0.453992 0.891006 0
    outer loop
      vertex 64.9944 74.9783 5.5
      vertex 65.4405 75.2056 0
      vertex 64.9944 74.9783 0
    endloop
  endfacet
  facet normal -0.891006 0.453992 0
    outer loop
      vertex 65.7944 75.5595 0
      vertex 66.0217 76.0056 5.5
      vertex 66.0217 76.0056 0
    endloop
  endfacet
  facet normal -0.891006 0.453992 0
    outer loop
      vertex 66.0217 76.0056 5.5
      vertex 65.7944 75.5595 0
      vertex 65.7944 75.5595 5.5
    endloop
  endfacet
  facet normal 0.453995 0.891004 -0
    outer loop
      vertex 64.0056 74.9783 0
      vertex 63.5595 75.2056 5.5
      vertex 64.0056 74.9783 5.5
    endloop
  endfacet
  facet normal 0.453995 0.891004 0
    outer loop
      vertex 63.5595 75.2056 5.5
      vertex 64.0056 74.9783 0
      vertex 63.5595 75.2056 0
    endloop
  endfacet
  facet normal 0.891006 0.453992 0
    outer loop
      vertex 63.2056 75.5595 5.5
      vertex 62.9783 76.0056 0
      vertex 62.9783 76.0056 5.5
    endloop
  endfacet
  facet normal 0.891006 0.453992 0
    outer loop
      vertex 62.9783 76.0056 0
      vertex 63.2056 75.5595 5.5
      vertex 63.2056 75.5595 0
    endloop
  endfacet
  facet normal -0.156431 -0.987689 0
    outer loop
      vertex 64.5 78.1 0
      vertex 64.9944 78.0217 5.5
      vertex 64.5 78.1 5.5
    endloop
  endfacet
  facet normal -0.156431 -0.987689 -0
    outer loop
      vertex 64.9944 78.0217 5.5
      vertex 64.5 78.1 0
      vertex 64.9944 78.0217 0
    endloop
  endfacet
  facet normal 0.987689 -0.156431 0
    outer loop
      vertex 62.9 76.5 5.5
      vertex 62.9783 76.9944 0
      vertex 62.9783 76.9944 5.5
    endloop
  endfacet
  facet normal 0.987689 -0.156431 0
    outer loop
      vertex 62.9783 76.9944 0
      vertex 62.9 76.5 5.5
      vertex 62.9 76.5 0
    endloop
  endfacet
  facet normal -0.707107 0.707107 0
    outer loop
      vertex 65.4405 75.2056 0
      vertex 65.7944 75.5595 5.5
      vertex 65.7944 75.5595 0
    endloop
  endfacet
  facet normal -0.707107 0.707107 0
    outer loop
      vertex 65.7944 75.5595 5.5
      vertex 65.4405 75.2056 0
      vertex 65.4405 75.2056 5.5
    endloop
  endfacet
  facet normal -0.987689 0.156431 0
    outer loop
      vertex 66.0217 76.0056 0
      vertex 66.1 76.5 5.5
      vertex 66.1 76.5 0
    endloop
  endfacet
  facet normal -0.987689 0.156431 0
    outer loop
      vertex 66.1 76.5 5.5
      vertex 66.0217 76.0056 0
      vertex 66.0217 76.0056 5.5
    endloop
  endfacet
  facet normal 0.156431 0.987689 -0
    outer loop
      vertex 64.5 74.9 0
      vertex 64.0056 74.9783 5.5
      vertex 64.5 74.9 5.5
    endloop
  endfacet
  facet normal 0.156431 0.987689 0
    outer loop
      vertex 64.0056 74.9783 5.5
      vertex 64.5 74.9 0
      vertex 64.0056 74.9783 0
    endloop
  endfacet
  facet normal 0.707103 0.707111 -0
    outer loop
      vertex 63.5595 75.2056 0
      vertex 63.2056 75.5595 5.5
      vertex 63.5595 75.2056 5.5
    endloop
  endfacet
  facet normal 0.707103 0.707111 0
    outer loop
      vertex 63.2056 75.5595 5.5
      vertex 63.5595 75.2056 0
      vertex 63.2056 75.5595 0
    endloop
  endfacet
  facet normal -0.156431 0.987689 0
    outer loop
      vertex 64.9944 74.9783 0
      vertex 64.5 74.9 5.5
      vertex 64.9944 74.9783 5.5
    endloop
  endfacet
  facet normal -0.156431 0.987689 0
    outer loop
      vertex 64.5 74.9 5.5
      vertex 64.9944 74.9783 0
      vertex 64.5 74.9 0
    endloop
  endfacet
  facet normal 1 -0 0
    outer loop
      vertex 16 77.5 5.5
      vertex 16 80 4
      vertex 16 80 5.5
    endloop
  endfacet
  facet normal 1 0 0
    outer loop
      vertex 16 80 4
      vertex 16 77.5 5.5
      vertex 16 77.5 4
    endloop
  endfacet
  facet normal -1 0 0
    outer loop
      vertex 21 77.5 4
      vertex 21 80 5.5
      vertex 21 80 4
    endloop
  endfacet
  facet normal -1 -0 0
    outer loop
      vertex 21 80 5.5
      vertex 21 77.5 4
      vertex 21 77.5 5.5
    endloop
  endfacet
  facet normal -0 0 1
    outer loop
      vertex 16 80 4
      vertex 21 77.5 4
      vertex 21 80 4
    endloop
  endfacet
  facet normal 0 0 1
    outer loop
      vertex 21 77.5 4
      vertex 16 80 4
      vertex 16 77.5 4
    endloop
  endfacet
endsolid OpenSCAD_Model
