#define ack_width 9
#define ack_height 9
static char ack_bits[] = {
  0xFE, 0x00, 0xFF, 0x01, 0x7F, 0x01, 0xBF, 0x01, 0xDD, 0x01, 0xEB, 0x01, 
  0xF7, 0x01, 0xFF, 0x01, 0xFE, 0x00, };
