#define downlink_width 9
#define downlink_height 9
static char downlink_bits[] = {
  0xFE, 0x00, 0xBB, 0x01, 0x1B, 0x01, 0xBB, 0x01, 0xBB, 0x01, 0xBB, 0x01, 
  0xB1, 0x01, 0xBB, 0x01, 0xFE, 0x00, };
