#define uplink_width 9
#define uplink_height 9
static char uplink_bits[] = {
  0xFE, 0x00, 0xEF, 0x01, 0xC7, 0x01, 0xEF, 0x01, 0xEF, 0x01, 0xEF, 0x01, 
  0xEF, 0x01, 0xEF, 0x01, 0xFE, 0x00, };
