#define waits_3_width 28
#define waits_3_height 7
static char waits_3_bits[] = {
  0x1C, 0xE0, 0x80, 0x03, 0x22, 0x10, 0x41, 0x04, 0x41, 0x08, 0xA2, 0x0B, 
  0x41, 0x08, 0xA2, 0x0B, 0x41, 0x08, 0xA2, 0x0B, 0x22, 0x10, 0x41, 0x04, 
  0x1C, 0xE0, 0x80, 0x03, };
