#define wait_3_width 45
#define wait_3_height 9
static char wait_3_bits[] = {
  0x7C, 0x00, 0xF0, 0x01, 0xC0, 0x07, 0x82, 0x00, 0x08, 0x02, 0x20, 0x08, 
  0x01, 0x01, 0x04, 0x04, 0x90, 0x13, 0x01, 0x01, 0x04, 0x04, 0xD0, 0x17, 
  0x01, 0x01, 0x04, 0x04, 0xD0, 0x17, 0x01, 0x01, 0x04, 0x04, 0xD0, 0x17, 
  0x01, 0x01, 0x04, 0x04, 0x90, 0x13, 0x82, 0x00, 0x08, 0x02, 0x20, 0x08, 
  0x7C, 0x00, 0xF0, 0x01, 0xC0, 0x07, };
