#define waits_1_width 28
#define waits_1_height 7
static char waits_1_bits[] = {
  0x1C, 0xE0, 0x80, 0x03, 0x22, 0x10, 0x41, 0x04, 0x5D, 0x08, 0x22, 0x08, 
  0x5D, 0x08, 0x22, 0x08, 0x5D, 0x08, 0x22, 0x08, 0x22, 0x10, 0x41, 0x04, 
  0x1C, 0xE0, 0x80, 0x03, };
