#define waits_0_width 28
#define waits_0_height 7
static char waits_0_bits[] = {
  0x1C, 0xE0, 0x80, 0x03, 0x22, 0x10, 0x41, 0x04, 0x41, 0x08, 0x22, 0x08, 
  0x41, 0x08, 0x22, 0x08, 0x41, 0x08, 0x22, 0x08, 0x22, 0x10, 0x41, 0x04, 
  0x1C, 0xE0, 0x80, 0x03, };
