#define wait_2_width 45
#define wait_2_height 9
static char wait_2_bits[] = {
  0x7C, 0x00, 0xF0, 0x01, 0xC0, 0x07, 0x82, 0x00, 0x08, 0x02, 0x20, 0x08, 
  0x01, 0x01, 0xE4, 0x04, 0x10, 0x10, 0x01, 0x01, 0xF4, 0x05, 0x10, 0x10, 
  0x01, 0x01, 0xF4, 0x05, 0x10, 0x10, 0x01, 0x01, 0xF4, 0x05, 0x10, 0x10, 
  0x01, 0x01, 0xE4, 0x04, 0x10, 0x10, 0x82, 0x00, 0x08, 0x02, 0x20, 0x08, 
  0x7C, 0x00, 0xF0, 0x01, 0xC0, 0x07, };
